<svg xmlns="http://www.w3.org/2000/svg" xmlns:xlink="http://www.w3.org/1999/xlink" width="500" zoomAndPan="magnify" viewBox="0 0 375 374.999991" height="500" preserveAspectRatio="xMidYMid meet" version="1.0"><defs><g/><clipPath id="8db625d383"><path d="M 73 11 L 301.699219 11 L 301.699219 300.003906 L 73 300.003906 Z M 73 11 " clip-rule="nonzero"/></clipPath></defs><g clip-path="url(#8db625d383)"><path fill="#344265" d="M 290.179688 87.539062 C 287.015625 67.277344 279.824219 42.148438 269.972656 26.957031 C 265.546875 20.128906 260.394531 15.015625 254.515625 12.613281 C 247.601562 9.78125 240.402344 10.578125 233.132812 16.328125 C 226.277344 21.742188 219.269531 32.226562 212.351562 49.410156 L 162.082031 49.410156 C 155.164062 32.226562 148.15625 21.75 141.300781 16.328125 C 134.027344 10.578125 126.839844 9.78125 119.917969 12.613281 C 114.042969 15.015625 108.886719 20.128906 104.457031 26.957031 C 94.539062 42.265625 87.308594 67.671875 84.1875 88.015625 C 77.144531 99.816406 73.082031 113.585938 73.082031 128.257812 L 73.082031 136.144531 C 73.082031 168.722656 93.09375 196.859375 121.421875 208.832031 C 120.425781 214.953125 119.894531 220.9375 119.84375 226.734375 C 119.667969 244.148438 123.769531 259.734375 131.875 272.050781 C 140.195312 284.695312 152.578125 293.78125 168.734375 297.800781 C 174.414062 299.214844 180.59375 299.992188 187.269531 300.058594 L 187.390625 300.058594 C 194.066406 299.992188 200.246094 299.214844 205.925781 297.800781 C 222.082031 293.773438 234.464844 284.695312 242.785156 272.050781 C 250.882812 259.742188 254.992188 244.15625 254.816406 226.734375 C 254.757812 220.941406 254.234375 214.957031 253.238281 208.839844 C 262.714844 204.835938 271.265625 199.019531 278.441406 191.84375 C 292.722656 177.558594 301.578125 157.839844 301.578125 136.148438 L 301.578125 128.265625 C 301.578125 113.382812 297.410156 99.441406 290.179688 87.539062 Z M 242.863281 28.644531 C 245.113281 26.871094 247.019531 26.496094 248.609375 27.152344 C 251.253906 28.230469 254.035156 31.253906 256.804688 35.527344 C 261.640625 42.992188 265.78125 53.460938 268.984375 64.492188 C 266.113281 62.402344 263.097656 60.5 259.960938 58.800781 C 259.960938 58.800781 259.96875 58.800781 259.96875 58.800781 C 254.019531 40.933594 246.121094 32.253906 237.355469 50.769531 C 234.699219 50.265625 232.003906 49.898438 229.261719 49.671875 C 234.128906 38.640625 238.671875 31.953125 242.863281 28.644531 Z M 117.636719 35.519531 C 120.40625 31.25 123.1875 28.230469 125.828125 27.144531 C 127.425781 26.488281 129.332031 26.863281 131.574219 28.636719 C 135.761719 31.953125 140.308594 38.640625 145.183594 49.675781 C 142.976562 49.863281 140.792969 50.144531 138.636719 50.515625 C 130.070312 32.660156 122.335938 40.722656 116.457031 57.863281 C 112.578125 59.832031 108.878906 62.113281 105.402344 64.671875 C 108.613281 53.574219 112.773438 43.023438 117.636719 35.519531 Z M 229.675781 263.421875 C 223.527344 272.765625 214.292969 279.5 202.171875 282.519531 C 197.589844 283.65625 192.640625 284.289062 187.328125 284.347656 C 182.019531 284.289062 177.070312 283.664062 172.488281 282.519531 C 160.367188 279.5 151.132812 272.765625 144.984375 263.421875 C 138.617188 253.75 135.394531 241.171875 135.539062 226.851562 C 135.582031 222.554688 135.933594 218.089844 136.605469 213.492188 C 141.546875 214.476562 146.65625 214.992188 151.875 214.992188 L 181.324219 214.992188 L 181.324219 228.566406 C 178.019531 229.597656 175.054688 231.425781 172.667969 233.816406 C 168.835938 237.652344 166.460938 242.953125 166.460938 248.800781 C 166.460938 254.652344 168.828125 259.953125 172.667969 263.789062 C 176.5 267.625 181.796875 270.003906 187.644531 270.003906 C 193.488281 270.003906 198.789062 267.632812 202.621094 263.789062 C 206.453125 259.953125 208.828125 254.652344 208.828125 248.800781 C 208.828125 242.953125 206.453125 237.652344 202.621094 233.816406 C 200.230469 231.425781 197.269531 229.597656 193.964844 228.566406 L 193.964844 214.992188 L 222.777344 214.992188 C 228.003906 214.992188 233.105469 214.476562 238.054688 213.492188 C 238.726562 218.089844 239.074219 222.550781 239.121094 226.847656 C 239.265625 241.164062 236.042969 253.742188 229.675781 263.421875 Z M 187.644531 233.921875 C 191.75 233.921875 195.46875 235.589844 198.164062 238.285156 C 200.855469 240.984375 202.519531 244.707031 202.519531 248.816406 C 202.519531 252.925781 200.855469 256.648438 198.164062 259.34375 C 195.46875 262.042969 191.75 263.710938 187.644531 263.710938 C 183.539062 263.710938 179.820312 262.042969 177.125 259.34375 C 174.429688 256.65625 172.769531 252.925781 172.769531 248.816406 C 172.769531 244.707031 174.433594 240.984375 177.125 238.285156 C 179.820312 235.589844 183.539062 233.921875 187.644531 233.921875 Z M 285.820312 136.144531 C 285.820312 153.480469 278.722656 169.25 267.296875 180.691406 C 255.867188 192.132812 240.117188 199.226562 222.785156 199.226562 L 151.875 199.226562 C 117.207031 199.226562 88.839844 170.839844 88.839844 136.144531 L 88.839844 128.257812 C 88.839844 110.921875 95.9375 95.148438 107.363281 83.710938 C 118.792969 72.277344 134.550781 65.175781 151.875 65.175781 L 222.785156 65.175781 C 257.453125 65.175781 285.820312 93.5625 285.820312 128.257812 Z M 259.324219 129.316406 L 259.324219 135.078125 C 259.324219 147.75 254.140625 159.277344 245.789062 167.636719 C 237.433594 176 225.917969 181.1875 213.253906 181.1875 L 161.417969 181.1875 C 136.074219 181.1875 115.339844 160.4375 115.339844 135.074219 L 115.339844 129.308594 C 115.339844 116.628906 120.523438 105.105469 128.878906 96.75 C 137.234375 88.390625 148.75 83.199219 161.417969 83.199219 L 213.253906 83.199219 C 238.589844 83.207031 259.324219 103.957031 259.324219 129.316406 Z M 259.324219 129.316406 " fill-opacity="1" fill-rule="evenodd"/></g><path fill="#11cde3" d="M 198.164062 238.28125 C 200.855469 240.976562 202.519531 244.699219 202.519531 248.808594 C 202.519531 252.917969 200.855469 256.640625 198.164062 259.339844 C 195.46875 262.035156 191.75 263.703125 187.644531 263.703125 C 183.539062 263.703125 179.820312 262.035156 177.125 259.339844 C 174.429688 256.648438 172.769531 252.917969 172.769531 248.808594 C 172.769531 244.699219 174.433594 240.976562 177.125 238.28125 C 179.8125 235.582031 183.539062 233.914062 187.644531 233.914062 C 191.757812 233.921875 195.476562 235.589844 198.164062 238.28125 Z M 161.988281 119.09375 C 159.398438 117.773438 156.597656 117.179688 153.808594 117.238281 C 151.03125 117.300781 148.28125 118.015625 145.765625 119.335938 C 140.128906 122.292969 135.660156 128.25 134.917969 136.566406 C 134.84375 137.394531 135.097656 138.144531 135.667969 138.753906 C 136.234375 139.363281 136.964844 139.671875 137.800781 139.65625 L 138.417969 139.644531 C 139.867188 139.617188 141.050781 138.511719 141.1875 137.074219 C 141.746094 131.117188 144.8125 126.925781 148.671875 124.902344 C 150.328125 124.035156 152.128906 123.558594 153.925781 123.519531 C 155.707031 123.476562 157.5 123.859375 159.15625 124.703125 C 163.199219 126.757812 166.488281 131.578125 167.203125 139.710938 C 167.332031 141.199219 168.582031 142.328125 170.074219 142.300781 L 170.675781 142.296875 C 171.492188 142.28125 172.1875 141.96875 172.734375 141.359375 C 173.285156 140.75 173.523438 140.027344 173.457031 139.210938 C 172.535156 128.574219 167.8125 122.050781 161.988281 119.09375 Z M 229.683594 119.339844 C 227.167969 118.023438 224.410156 117.304688 221.640625 117.246094 C 218.851562 117.1875 216.050781 117.78125 213.460938 119.101562 C 207.636719 122.058594 202.914062 128.578125 201.992188 139.222656 C 201.917969 140.039062 202.164062 140.761719 202.714844 141.371094 C 203.261719 141.980469 203.957031 142.296875 204.773438 142.308594 L 205.375 142.316406 C 206.867188 142.34375 208.117188 141.210938 208.246094 139.726562 C 208.960938 131.597656 212.25 126.773438 216.292969 124.71875 C 217.949219 123.875 219.742188 123.492188 221.523438 123.53125 C 223.320312 123.570312 225.121094 124.046875 226.777344 124.917969 C 230.636719 126.9375 233.707031 131.128906 234.261719 137.085938 C 234.398438 138.53125 235.582031 139.632812 237.03125 139.65625 L 237.648438 139.671875 C 238.484375 139.683594 239.207031 139.382812 239.773438 138.765625 C 240.34375 138.160156 240.605469 137.410156 240.523438 136.578125 C 239.789062 128.25 235.320312 122.292969 229.683594 119.339844 Z M 229.683594 119.339844 " fill-opacity="1" fill-rule="nonzero"/><g fill="#11cde3" fill-opacity="0.9412"><g transform="translate(28.728557, 352.735054)"><g><path d="M 18.953125 -2.3125 C 18.929688 -2.132812 18.894531 -1.960938 18.84375 -1.796875 C 18.800781 -1.640625 18.675781 -1.507812 18.46875 -1.40625 C 18.382812 -1.375 18.003906 -1.238281 17.328125 -1 C 16.648438 -0.757812 15.863281 -0.476562 14.96875 -0.15625 C 14.070312 0.15625 13.1875 0.46875 12.3125 0.78125 C 11.4375 1.101562 10.769531 1.351562 10.3125 1.53125 C 10.082031 1.625 9.796875 1.722656 9.453125 1.828125 C 9.117188 1.929688 8.789062 1.984375 8.46875 1.984375 C 8.195312 1.984375 7.960938 1.914062 7.765625 1.78125 C 7.566406 1.644531 7.46875 1.394531 7.46875 1.03125 C 7.46875 0.1875 7.488281 -0.582031 7.53125 -1.28125 C 7.582031 -1.976562 7.644531 -2.710938 7.71875 -3.484375 C 7.800781 -4.253906 7.882812 -5.101562 7.96875 -6.03125 C 8.050781 -6.96875 8.128906 -8.078125 8.203125 -9.359375 C 8.304688 -11.046875 8.414062 -12.671875 8.53125 -14.234375 C 8.644531 -15.804688 8.757812 -17.4375 8.875 -19.125 L 9.28125 -24.0625 C 9.332031 -24.863281 9.382812 -25.679688 9.4375 -26.515625 C 9.5 -27.347656 9.5625 -28.207031 9.625 -29.09375 L 9.9375 -32.609375 C 9.9375 -32.648438 9.878906 -32.671875 9.765625 -32.671875 C 9.609375 -32.671875 9.347656 -32.632812 8.984375 -32.5625 C 8.617188 -32.5 8.1875 -32.414062 7.6875 -32.3125 C 7.1875 -32.21875 6.632812 -32.117188 6.03125 -32.015625 C 5.425781 -31.910156 4.804688 -31.8125 4.171875 -31.71875 C 4.023438 -31.71875 3.878906 -31.75 3.734375 -31.8125 C 3.585938 -31.882812 3.515625 -31.96875 3.515625 -32.0625 C 3.515625 -32.132812 3.535156 -32.191406 3.578125 -32.234375 L 8.234375 -40.390625 C 9.296875 -40.617188 10.4375 -40.851562 11.65625 -41.09375 C 12.875 -41.332031 14.179688 -41.546875 15.578125 -41.734375 C 16.984375 -41.929688 18.472656 -42.09375 20.046875 -42.21875 C 21.617188 -42.34375 23.289062 -42.40625 25.0625 -42.40625 C 27.0625 -42.363281 29.003906 -42.164062 30.890625 -41.8125 C 32.785156 -41.457031 34.46875 -40.863281 35.9375 -40.03125 C 37.40625 -39.195312 38.585938 -38.0625 39.484375 -36.625 C 40.378906 -35.195312 40.828125 -33.390625 40.828125 -31.203125 C 40.828125 -29.992188 40.617188 -28.878906 40.203125 -27.859375 C 39.785156 -26.835938 39.253906 -25.914062 38.609375 -25.09375 C 37.972656 -24.28125 37.269531 -23.5625 36.5 -22.9375 C 35.726562 -22.320312 34.992188 -21.789062 34.296875 -21.34375 C 33.597656 -20.90625 32.976562 -20.554688 32.4375 -20.296875 C 31.894531 -20.035156 31.53125 -19.867188 31.34375 -19.796875 C 31.34375 -19.753906 31.359375 -19.703125 31.390625 -19.640625 C 31.421875 -19.585938 31.484375 -19.476562 31.578125 -19.3125 C 31.671875 -19.15625 31.804688 -18.925781 31.984375 -18.625 C 32.171875 -18.320312 32.410156 -17.914062 32.703125 -17.40625 C 33.003906 -16.9375 33.363281 -16.316406 33.78125 -15.546875 C 34.207031 -14.785156 34.710938 -13.878906 35.296875 -12.828125 C 35.890625 -11.785156 36.566406 -10.617188 37.328125 -9.328125 C 38.097656 -8.046875 38.984375 -6.664062 39.984375 -5.1875 C 40.304688 -4.894531 40.679688 -4.710938 41.109375 -4.640625 C 41.535156 -4.578125 41.929688 -4.539062 42.296875 -4.53125 C 42.660156 -4.519531 42.96875 -4.5 43.21875 -4.46875 C 43.46875 -4.445312 43.59375 -4.332031 43.59375 -4.125 C 43.59375 -3.96875 43.429688 -3.785156 43.109375 -3.578125 C 42.796875 -3.378906 42.425781 -3.175781 42 -2.96875 C 41.582031 -2.757812 41.15625 -2.554688 40.71875 -2.359375 C 40.289062 -2.171875 39.960938 -2.019531 39.734375 -1.90625 C 39.265625 -1.675781 38.78125 -1.453125 38.28125 -1.234375 C 37.78125 -1.023438 37.242188 -0.789062 36.671875 -0.53125 C 36.097656 -0.269531 35.457031 0.03125 34.75 0.375 C 34.050781 0.71875 33.257812 1.128906 32.375 1.609375 C 32.144531 1.742188 31.929688 1.832031 31.734375 1.875 C 31.535156 1.925781 31.347656 1.953125 31.171875 1.953125 C 30.828125 1.953125 30.53125 1.867188 30.28125 1.703125 C 30.03125 1.546875 29.816406 1.351562 29.640625 1.125 C 29.472656 0.894531 29.332031 0.660156 29.21875 0.421875 C 29.113281 0.179688 29.023438 -0.015625 28.953125 -0.171875 L 20.375 -18.265625 Z M 20.71875 -21.8125 C 21.695312 -21.8125 22.710938 -22.0625 23.765625 -22.5625 C 24.828125 -23.0625 25.785156 -23.703125 26.640625 -24.484375 C 27.503906 -25.273438 28.210938 -26.171875 28.765625 -27.171875 C 29.328125 -28.171875 29.609375 -29.175781 29.609375 -30.1875 C 29.609375 -32.976562 27.941406 -34.375 24.609375 -34.375 C 23.972656 -34.375 23.441406 -34.328125 23.015625 -34.234375 C 22.597656 -34.148438 22.210938 -34.085938 21.859375 -34.046875 Z M 20.71875 -21.8125 "/></g></g></g><g fill="#11cde3" fill-opacity="0.9412"><g transform="translate(71.157994, 352.735054)"><g><path d="M 20.625 -32.15625 C 22.445312 -32.15625 24.101562 -31.8125 25.59375 -31.125 C 27.082031 -30.445312 28.359375 -29.5625 29.421875 -28.46875 C 30.492188 -27.382812 31.316406 -26.171875 31.890625 -24.828125 C 32.460938 -23.484375 32.75 -22.140625 32.75 -20.796875 C 32.75 -19.609375 32.382812 -18.410156 31.65625 -17.203125 C 30.925781 -16.003906 29.90625 -14.925781 28.59375 -13.96875 C 27.28125 -13.007812 25.703125 -12.234375 23.859375 -11.640625 C 22.015625 -11.046875 19.988281 -10.75 17.78125 -10.75 C 16.625 -10.75 15.410156 -10.863281 14.140625 -11.09375 C 14.222656 -10.269531 14.460938 -9.554688 14.859375 -8.953125 C 15.265625 -8.359375 15.773438 -7.867188 16.390625 -7.484375 C 17.003906 -7.109375 17.695312 -6.828125 18.46875 -6.640625 C 19.25 -6.453125 20.054688 -6.359375 20.890625 -6.359375 C 21.804688 -6.359375 22.691406 -6.441406 23.546875 -6.609375 C 24.398438 -6.773438 25.222656 -6.988281 26.015625 -7.25 C 26.804688 -7.519531 27.566406 -7.816406 28.296875 -8.140625 C 29.023438 -8.472656 29.710938 -8.800781 30.359375 -9.125 C 30.535156 -9.164062 30.6875 -9.203125 30.8125 -9.234375 C 30.9375 -9.265625 31.054688 -9.28125 31.171875 -9.28125 C 31.171875 -9.28125 31.164062 -9.125 31.15625 -8.8125 C 31.144531 -8.507812 31.140625 -8.078125 31.140625 -7.515625 C 31.140625 -6.960938 31.132812 -6.289062 31.125 -5.5 C 31.113281 -4.71875 31.097656 -3.84375 31.078125 -2.875 C 31.140625 -2.78125 31.179688 -2.6875 31.203125 -2.59375 C 31.222656 -2.5 31.234375 -2.421875 31.234375 -2.359375 C 31.234375 -2.128906 31.019531 -1.878906 30.59375 -1.609375 C 30.175781 -1.335938 29.625 -1.054688 28.9375 -0.765625 C 28.257812 -0.484375 27.484375 -0.207031 26.609375 0.0625 C 25.734375 0.332031 24.84375 0.578125 23.9375 0.796875 C 23.039062 1.015625 22.164062 1.1875 21.3125 1.3125 C 20.46875 1.4375 19.726562 1.5 19.09375 1.5 C 17.019531 1.5 15.007812 1.140625 13.0625 0.421875 C 11.113281 -0.296875 9.382812 -1.328125 7.875 -2.671875 C 6.375 -4.023438 5.171875 -5.660156 4.265625 -7.578125 C 3.359375 -9.492188 2.90625 -11.65625 2.90625 -14.0625 C 2.90625 -16.570312 3.335938 -18.925781 4.203125 -21.125 C 5.066406 -23.332031 6.28125 -25.25 7.84375 -26.875 C 9.414062 -28.507812 11.285156 -29.796875 13.453125 -30.734375 C 15.617188 -31.679688 18.007812 -32.15625 20.625 -32.15625 Z M 20.28125 -24.484375 C 19.488281 -24.484375 18.757812 -24.316406 18.09375 -23.984375 C 17.4375 -23.648438 16.832031 -23.171875 16.28125 -22.546875 C 15.738281 -21.921875 15.265625 -21.171875 14.859375 -20.296875 C 14.460938 -19.421875 14.140625 -18.457031 13.890625 -17.40625 C 15.867188 -17.75 17.507812 -18.113281 18.8125 -18.5 C 20.113281 -18.882812 21.160156 -19.269531 21.953125 -19.65625 C 22.742188 -20.050781 23.300781 -20.445312 23.625 -20.84375 C 23.945312 -21.238281 24.109375 -21.617188 24.109375 -21.984375 C 24.109375 -22.328125 23.976562 -22.648438 23.71875 -22.953125 C 23.457031 -23.265625 23.132812 -23.535156 22.75 -23.765625 C 22.375 -23.992188 21.957031 -24.171875 21.5 -24.296875 C 21.050781 -24.421875 20.644531 -24.484375 20.28125 -24.484375 Z M 20.28125 -24.484375 "/></g></g></g><g fill="#11cde3" fill-opacity="0.9412"><g transform="translate(104.053049, 352.735054)"><g><path d="M 16.328125 -20.109375 C 16.210938 -18.265625 16.113281 -16.765625 16.03125 -15.609375 C 15.945312 -14.460938 15.875 -13.523438 15.8125 -12.796875 C 15.757812 -12.078125 15.710938 -11.507812 15.671875 -11.09375 C 15.628906 -10.6875 15.597656 -10.300781 15.578125 -9.9375 C 16.023438 -8.78125 16.679688 -7.84375 17.546875 -7.125 C 18.410156 -6.40625 19.445312 -6.046875 20.65625 -6.046875 C 21.707031 -6.046875 22.628906 -6.375 23.421875 -7.03125 C 24.222656 -7.695312 24.890625 -8.554688 25.421875 -9.609375 C 25.953125 -10.671875 26.347656 -11.851562 26.609375 -13.15625 C 26.878906 -14.46875 27.015625 -15.769531 27.015625 -17.0625 C 27.015625 -18.113281 26.921875 -19.085938 26.734375 -19.984375 C 26.554688 -20.890625 26.285156 -21.671875 25.921875 -22.328125 C 25.554688 -22.992188 25.097656 -23.515625 24.546875 -23.890625 C 24.003906 -24.265625 23.359375 -24.453125 22.609375 -24.453125 C 21.992188 -24.453125 21.382812 -24.332031 20.78125 -24.09375 C 20.175781 -23.851562 19.59375 -23.546875 19.03125 -23.171875 C 18.476562 -22.796875 17.976562 -22.375 17.53125 -21.90625 C 17.082031 -21.4375 16.710938 -20.984375 16.421875 -20.546875 Z M 16.90625 -28.546875 C 18.519531 -29.640625 20.207031 -30.515625 21.96875 -31.171875 C 23.738281 -31.828125 25.585938 -32.15625 27.515625 -32.15625 C 29.316406 -32.15625 30.875 -31.785156 32.1875 -31.046875 C 33.507812 -30.304688 34.601562 -29.304688 35.46875 -28.046875 C 36.332031 -26.785156 36.96875 -25.335938 37.375 -23.703125 C 37.789062 -22.078125 38 -20.367188 38 -18.578125 C 38 -17.023438 37.84375 -15.453125 37.53125 -13.859375 C 37.226562 -12.265625 36.78125 -10.722656 36.1875 -9.234375 C 35.59375 -7.742188 34.851562 -6.34375 33.96875 -5.03125 C 33.082031 -3.726562 32.066406 -2.59375 30.921875 -1.625 C 29.785156 -0.65625 28.515625 0.101562 27.109375 0.65625 C 25.703125 1.21875 24.1875 1.5 22.5625 1.5 C 21.113281 1.5 19.734375 1.207031 18.421875 0.625 C 17.109375 0.0507812 15.875 -0.691406 14.71875 -1.609375 C 14.71875 -1.515625 14.691406 -1.164062 14.640625 -0.5625 C 14.597656 0.0390625 14.535156 0.773438 14.453125 1.640625 C 14.378906 2.503906 14.296875 3.429688 14.203125 4.421875 C 14.109375 5.410156 14.019531 6.335938 13.9375 7.203125 C 13.863281 8.066406 13.800781 8.800781 13.75 9.40625 C 13.707031 10.007812 13.6875 10.359375 13.6875 10.453125 C 13.6875 10.609375 13.691406 10.738281 13.703125 10.84375 C 13.710938 10.945312 13.71875 11.050781 13.71875 11.15625 C 13.71875 11.300781 13.644531 11.425781 13.5 11.53125 C 13.351562 11.644531 13.03125 11.765625 12.53125 11.890625 L 4.953125 13.828125 C 4.742188 13.890625 4.460938 13.984375 4.109375 14.109375 C 3.765625 14.234375 3.429688 14.296875 3.109375 14.296875 C 2.835938 14.296875 2.601562 14.226562 2.40625 14.09375 C 2.207031 13.957031 2.109375 13.707031 2.109375 13.34375 L 5.625 -28.84375 C 5.675781 -29.46875 5.742188 -29.898438 5.828125 -30.140625 C 5.921875 -30.390625 6.140625 -30.550781 6.484375 -30.625 C 8.234375 -30.96875 10.03125 -31.316406 11.875 -31.671875 C 13.71875 -32.023438 15.507812 -32.484375 17.25 -33.046875 C 17.40625 -33.046875 17.5 -33.019531 17.53125 -32.96875 C 17.5625 -32.925781 17.578125 -32.851562 17.578125 -32.75 C 17.578125 -32.71875 17.570312 -32.660156 17.5625 -32.578125 C 17.550781 -32.503906 17.519531 -32.332031 17.46875 -32.0625 C 17.425781 -31.789062 17.359375 -31.378906 17.265625 -30.828125 C 17.179688 -30.285156 17.0625 -29.523438 16.90625 -28.546875 Z M 16.90625 -28.546875 "/></g></g></g><g fill="#11cde3" fill-opacity="0.9412"><g transform="translate(142.219379, 352.735054)"><g><path d="M 19.296875 1.5 C 16.585938 1.5 14.210938 1.054688 12.171875 0.171875 C 10.128906 -0.710938 8.414062 -1.890625 7.03125 -3.359375 C 5.644531 -4.828125 4.601562 -6.515625 3.90625 -8.421875 C 3.21875 -10.335938 2.875 -12.320312 2.875 -14.375 C 2.875 -16.425781 3.207031 -18.378906 3.875 -20.234375 C 4.550781 -22.085938 5.492188 -23.75 6.703125 -25.21875 C 7.921875 -26.6875 9.375 -27.914062 11.0625 -28.90625 C 12.75 -29.894531 14.613281 -30.5625 16.65625 -30.90625 C 16.957031 -30.925781 17.109375 -30.992188 17.109375 -31.109375 C 17.109375 -31.328125 17.082031 -31.523438 17.03125 -31.703125 C 16.988281 -31.890625 16.96875 -32.046875 16.96875 -32.171875 C 16.96875 -32.390625 17.003906 -32.535156 17.078125 -32.609375 C 17.160156 -32.691406 17.25 -32.734375 17.34375 -32.734375 C 21.007812 -32.734375 24.128906 -32.3125 26.703125 -31.46875 C 29.273438 -30.632812 31.367188 -29.5 32.984375 -28.0625 C 34.597656 -26.625 35.769531 -24.921875 36.5 -22.953125 C 37.226562 -20.992188 37.59375 -18.894531 37.59375 -16.65625 C 37.59375 -13.789062 37.113281 -11.234375 36.15625 -8.984375 C 35.195312 -6.742188 33.882812 -4.84375 32.21875 -3.28125 C 30.5625 -1.726562 28.625 -0.546875 26.40625 0.265625 C 24.1875 1.085938 21.816406 1.5 19.296875 1.5 Z M 13.96875 -14.6875 C 13.96875 -13.65625 14.078125 -12.628906 14.296875 -11.609375 C 14.523438 -10.585938 14.890625 -9.664062 15.390625 -8.84375 C 15.898438 -8.019531 16.566406 -7.351562 17.390625 -6.84375 C 18.222656 -6.332031 19.253906 -6.078125 20.484375 -6.078125 C 21.367188 -6.117188 22.140625 -6.316406 22.796875 -6.671875 C 23.460938 -7.023438 24.035156 -7.484375 24.515625 -8.046875 C 24.992188 -8.617188 25.390625 -9.257812 25.703125 -9.96875 C 26.023438 -10.675781 26.273438 -11.410156 26.453125 -12.171875 C 26.640625 -12.929688 26.769531 -13.675781 26.84375 -14.40625 C 26.925781 -15.132812 26.96875 -15.796875 26.96875 -16.390625 C 26.96875 -17.390625 26.816406 -18.367188 26.515625 -19.328125 C 26.222656 -20.285156 25.785156 -21.128906 25.203125 -21.859375 C 24.628906 -22.585938 23.914062 -23.175781 23.0625 -23.625 C 22.207031 -24.082031 21.222656 -24.3125 20.109375 -24.3125 C 18.953125 -24.3125 17.976562 -23.96875 17.1875 -23.28125 C 16.40625 -22.601562 15.78125 -21.765625 15.3125 -20.765625 C 14.84375 -19.765625 14.5 -18.710938 14.28125 -17.609375 C 14.070312 -16.503906 13.96875 -15.53125 13.96875 -14.6875 Z M 13.96875 -14.6875 "/></g></g></g><g fill="#11cde3" fill-opacity="0.9412"><g transform="translate(180.040052, 352.735054)"><g><path d="M 18.953125 -2.3125 C 18.929688 -2.132812 18.894531 -1.960938 18.84375 -1.796875 C 18.800781 -1.640625 18.675781 -1.507812 18.46875 -1.40625 C 18.382812 -1.375 18.003906 -1.238281 17.328125 -1 C 16.648438 -0.757812 15.863281 -0.476562 14.96875 -0.15625 C 14.070312 0.15625 13.1875 0.46875 12.3125 0.78125 C 11.4375 1.101562 10.769531 1.351562 10.3125 1.53125 C 10.082031 1.625 9.796875 1.722656 9.453125 1.828125 C 9.117188 1.929688 8.789062 1.984375 8.46875 1.984375 C 8.195312 1.984375 7.960938 1.914062 7.765625 1.78125 C 7.566406 1.644531 7.46875 1.394531 7.46875 1.03125 C 7.46875 0.1875 7.488281 -0.582031 7.53125 -1.28125 C 7.582031 -1.976562 7.644531 -2.710938 7.71875 -3.484375 C 7.800781 -4.253906 7.882812 -5.101562 7.96875 -6.03125 C 8.050781 -6.96875 8.128906 -8.078125 8.203125 -9.359375 C 8.304688 -11.046875 8.414062 -12.671875 8.53125 -14.234375 C 8.644531 -15.804688 8.757812 -17.4375 8.875 -19.125 L 9.28125 -24.0625 C 9.332031 -24.863281 9.382812 -25.679688 9.4375 -26.515625 C 9.5 -27.347656 9.5625 -28.207031 9.625 -29.09375 L 9.9375 -32.609375 C 9.9375 -32.648438 9.878906 -32.671875 9.765625 -32.671875 C 9.609375 -32.671875 9.347656 -32.632812 8.984375 -32.5625 C 8.617188 -32.5 8.1875 -32.414062 7.6875 -32.3125 C 7.1875 -32.21875 6.632812 -32.117188 6.03125 -32.015625 C 5.425781 -31.910156 4.804688 -31.8125 4.171875 -31.71875 C 4.023438 -31.71875 3.878906 -31.75 3.734375 -31.8125 C 3.585938 -31.882812 3.515625 -31.96875 3.515625 -32.0625 C 3.515625 -32.132812 3.535156 -32.191406 3.578125 -32.234375 L 8.234375 -40.390625 C 9.296875 -40.617188 10.4375 -40.851562 11.65625 -41.09375 C 12.875 -41.332031 14.179688 -41.546875 15.578125 -41.734375 C 16.984375 -41.929688 18.472656 -42.09375 20.046875 -42.21875 C 21.617188 -42.34375 23.289062 -42.40625 25.0625 -42.40625 C 27.0625 -42.363281 29.003906 -42.164062 30.890625 -41.8125 C 32.785156 -41.457031 34.46875 -40.863281 35.9375 -40.03125 C 37.40625 -39.195312 38.585938 -38.0625 39.484375 -36.625 C 40.378906 -35.195312 40.828125 -33.390625 40.828125 -31.203125 C 40.828125 -29.992188 40.617188 -28.878906 40.203125 -27.859375 C 39.785156 -26.835938 39.253906 -25.914062 38.609375 -25.09375 C 37.972656 -24.28125 37.269531 -23.5625 36.5 -22.9375 C 35.726562 -22.320312 34.992188 -21.789062 34.296875 -21.34375 C 33.597656 -20.90625 32.976562 -20.554688 32.4375 -20.296875 C 31.894531 -20.035156 31.53125 -19.867188 31.34375 -19.796875 C 31.34375 -19.753906 31.359375 -19.703125 31.390625 -19.640625 C 31.421875 -19.585938 31.484375 -19.476562 31.578125 -19.3125 C 31.671875 -19.15625 31.804688 -18.925781 31.984375 -18.625 C 32.171875 -18.320312 32.410156 -17.914062 32.703125 -17.40625 C 33.003906 -16.9375 33.363281 -16.316406 33.78125 -15.546875 C 34.207031 -14.785156 34.710938 -13.878906 35.296875 -12.828125 C 35.890625 -11.785156 36.566406 -10.617188 37.328125 -9.328125 C 38.097656 -8.046875 38.984375 -6.664062 39.984375 -5.1875 C 40.304688 -4.894531 40.679688 -4.710938 41.109375 -4.640625 C 41.535156 -4.578125 41.929688 -4.539062 42.296875 -4.53125 C 42.660156 -4.519531 42.96875 -4.5 43.21875 -4.46875 C 43.46875 -4.445312 43.59375 -4.332031 43.59375 -4.125 C 43.59375 -3.96875 43.429688 -3.785156 43.109375 -3.578125 C 42.796875 -3.378906 42.425781 -3.175781 42 -2.96875 C 41.582031 -2.757812 41.15625 -2.554688 40.71875 -2.359375 C 40.289062 -2.171875 39.960938 -2.019531 39.734375 -1.90625 C 39.265625 -1.675781 38.78125 -1.453125 38.28125 -1.234375 C 37.78125 -1.023438 37.242188 -0.789062 36.671875 -0.53125 C 36.097656 -0.269531 35.457031 0.03125 34.75 0.375 C 34.050781 0.71875 33.257812 1.128906 32.375 1.609375 C 32.144531 1.742188 31.929688 1.832031 31.734375 1.875 C 31.535156 1.925781 31.347656 1.953125 31.171875 1.953125 C 30.828125 1.953125 30.53125 1.867188 30.28125 1.703125 C 30.03125 1.546875 29.816406 1.351562 29.640625 1.125 C 29.472656 0.894531 29.332031 0.660156 29.21875 0.421875 C 29.113281 0.179688 29.023438 -0.015625 28.953125 -0.171875 L 20.375 -18.265625 Z M 20.71875 -21.8125 C 21.695312 -21.8125 22.710938 -22.0625 23.765625 -22.5625 C 24.828125 -23.0625 25.785156 -23.703125 26.640625 -24.484375 C 27.503906 -25.273438 28.210938 -26.171875 28.765625 -27.171875 C 29.328125 -28.171875 29.609375 -29.175781 29.609375 -30.1875 C 29.609375 -32.976562 27.941406 -34.375 24.609375 -34.375 C 23.972656 -34.375 23.441406 -34.328125 23.015625 -34.234375 C 22.597656 -34.148438 22.210938 -34.085938 21.859375 -34.046875 Z M 20.71875 -21.8125 "/></g></g></g><g fill="#11cde3" fill-opacity="0.9412"><g transform="translate(222.469489, 352.735054)"><g><path d="M 19.296875 1.5 C 16.585938 1.5 14.210938 1.054688 12.171875 0.171875 C 10.128906 -0.710938 8.414062 -1.890625 7.03125 -3.359375 C 5.644531 -4.828125 4.601562 -6.515625 3.90625 -8.421875 C 3.21875 -10.335938 2.875 -12.320312 2.875 -14.375 C 2.875 -16.425781 3.207031 -18.378906 3.875 -20.234375 C 4.550781 -22.085938 5.492188 -23.75 6.703125 -25.21875 C 7.921875 -26.6875 9.375 -27.914062 11.0625 -28.90625 C 12.75 -29.894531 14.613281 -30.5625 16.65625 -30.90625 C 16.957031 -30.925781 17.109375 -30.992188 17.109375 -31.109375 C 17.109375 -31.328125 17.082031 -31.523438 17.03125 -31.703125 C 16.988281 -31.890625 16.96875 -32.046875 16.96875 -32.171875 C 16.96875 -32.390625 17.003906 -32.535156 17.078125 -32.609375 C 17.160156 -32.691406 17.25 -32.734375 17.34375 -32.734375 C 21.007812 -32.734375 24.128906 -32.3125 26.703125 -31.46875 C 29.273438 -30.632812 31.367188 -29.5 32.984375 -28.0625 C 34.597656 -26.625 35.769531 -24.921875 36.5 -22.953125 C 37.226562 -20.992188 37.59375 -18.894531 37.59375 -16.65625 C 37.59375 -13.789062 37.113281 -11.234375 36.15625 -8.984375 C 35.195312 -6.742188 33.882812 -4.84375 32.21875 -3.28125 C 30.5625 -1.726562 28.625 -0.546875 26.40625 0.265625 C 24.1875 1.085938 21.816406 1.5 19.296875 1.5 Z M 13.96875 -14.6875 C 13.96875 -13.65625 14.078125 -12.628906 14.296875 -11.609375 C 14.523438 -10.585938 14.890625 -9.664062 15.390625 -8.84375 C 15.898438 -8.019531 16.566406 -7.351562 17.390625 -6.84375 C 18.222656 -6.332031 19.253906 -6.078125 20.484375 -6.078125 C 21.367188 -6.117188 22.140625 -6.316406 22.796875 -6.671875 C 23.460938 -7.023438 24.035156 -7.484375 24.515625 -8.046875 C 24.992188 -8.617188 25.390625 -9.257812 25.703125 -9.96875 C 26.023438 -10.675781 26.273438 -11.410156 26.453125 -12.171875 C 26.640625 -12.929688 26.769531 -13.675781 26.84375 -14.40625 C 26.925781 -15.132812 26.96875 -15.796875 26.96875 -16.390625 C 26.96875 -17.390625 26.816406 -18.367188 26.515625 -19.328125 C 26.222656 -20.285156 25.785156 -21.128906 25.203125 -21.859375 C 24.628906 -22.585938 23.914062 -23.175781 23.0625 -23.625 C 22.207031 -24.082031 21.222656 -24.3125 20.109375 -24.3125 C 18.953125 -24.3125 17.976562 -23.96875 17.1875 -23.28125 C 16.40625 -22.601562 15.78125 -21.765625 15.3125 -20.765625 C 14.84375 -19.765625 14.5 -18.710938 14.28125 -17.609375 C 14.070312 -16.503906 13.96875 -15.53125 13.96875 -14.6875 Z M 13.96875 -14.6875 "/></g></g></g><g fill="#11cde3" fill-opacity="0.9412"><g transform="translate(260.290173, 352.735054)"><g><path d="M 24.625 -31.859375 C 24.707031 -32.054688 24.851562 -32.15625 25.0625 -32.15625 C 25.101562 -32.15625 25.140625 -32.148438 25.171875 -32.140625 C 25.210938 -32.128906 25.253906 -32.125 25.296875 -32.125 C 26.734375 -31.5625 28.207031 -31.101562 29.71875 -30.75 C 31.238281 -30.394531 32.75 -30.054688 34.25 -29.734375 C 34.613281 -29.648438 34.796875 -29.4375 34.796875 -29.09375 C 34.796875 -28.84375 34.679688 -28.457031 34.453125 -27.9375 L 22.59375 -2.703125 C 22.4375 -2.359375 22.300781 -2.082031 22.1875 -1.875 C 22.070312 -1.664062 21.957031 -1.492188 21.84375 -1.359375 C 21.726562 -1.222656 21.601562 -1.125 21.46875 -1.0625 C 21.332031 -1.007812 21.164062 -0.960938 20.96875 -0.921875 C 19.507812 -0.628906 18.03125 -0.296875 16.53125 0.078125 C 15.039062 0.453125 13.488281 0.914062 11.875 1.46875 C 11.832031 1.46875 11.800781 1.472656 11.78125 1.484375 C 11.757812 1.492188 11.738281 1.5 11.71875 1.5 L 11.53125 1.5 C 11.425781 1.5 11.34375 1.460938 11.28125 1.390625 C 11.226562 1.328125 11.191406 1.265625 11.171875 1.203125 C 10.890625 0.378906 10.5625 -0.679688 10.1875 -1.984375 C 9.8125 -3.296875 9.398438 -4.753906 8.953125 -6.359375 C 8.515625 -7.972656 8.054688 -9.691406 7.578125 -11.515625 C 7.097656 -13.347656 6.609375 -15.203125 6.109375 -17.078125 C 5.609375 -18.960938 5.113281 -20.832031 4.625 -22.6875 C 4.132812 -24.539062 3.660156 -26.289062 3.203125 -27.9375 C 3.023438 -28.539062 2.9375 -28.96875 2.9375 -29.21875 C 2.9375 -29.476562 3.09375 -29.648438 3.40625 -29.734375 C 4.894531 -30.054688 6.445312 -30.394531 8.0625 -30.75 C 9.675781 -31.101562 11.203125 -31.5625 12.640625 -32.125 C 12.703125 -32.144531 12.789062 -32.15625 12.90625 -32.15625 C 13.15625 -32.15625 13.289062 -32.054688 13.3125 -31.859375 L 17.109375 -12.5 C 17.203125 -12.726562 17.363281 -13.144531 17.59375 -13.75 C 17.832031 -14.351562 18.113281 -15.078125 18.4375 -15.921875 C 18.757812 -16.773438 19.117188 -17.707031 19.515625 -18.71875 C 19.910156 -19.738281 20.3125 -20.773438 20.71875 -21.828125 C 21.132812 -22.890625 21.546875 -23.941406 21.953125 -24.984375 C 22.359375 -26.035156 22.738281 -27.007812 23.09375 -27.90625 C 23.445312 -28.8125 23.757812 -29.609375 24.03125 -30.296875 C 24.300781 -30.992188 24.5 -31.515625 24.625 -31.859375 Z M 24.625 -31.859375 "/></g></g></g><g fill="#11cde3" fill-opacity="0.9412"><g transform="translate(292.551523, 352.735054)"><g><path d="M 20.625 -32.15625 C 22.445312 -32.15625 24.101562 -31.8125 25.59375 -31.125 C 27.082031 -30.445312 28.359375 -29.5625 29.421875 -28.46875 C 30.492188 -27.382812 31.316406 -26.171875 31.890625 -24.828125 C 32.460938 -23.484375 32.75 -22.140625 32.75 -20.796875 C 32.75 -19.609375 32.382812 -18.410156 31.65625 -17.203125 C 30.925781 -16.003906 29.90625 -14.925781 28.59375 -13.96875 C 27.28125 -13.007812 25.703125 -12.234375 23.859375 -11.640625 C 22.015625 -11.046875 19.988281 -10.75 17.78125 -10.75 C 16.625 -10.75 15.410156 -10.863281 14.140625 -11.09375 C 14.222656 -10.269531 14.460938 -9.554688 14.859375 -8.953125 C 15.265625 -8.359375 15.773438 -7.867188 16.390625 -7.484375 C 17.003906 -7.109375 17.695312 -6.828125 18.46875 -6.640625 C 19.25 -6.453125 20.054688 -6.359375 20.890625 -6.359375 C 21.804688 -6.359375 22.691406 -6.441406 23.546875 -6.609375 C 24.398438 -6.773438 25.222656 -6.988281 26.015625 -7.25 C 26.804688 -7.519531 27.566406 -7.816406 28.296875 -8.140625 C 29.023438 -8.472656 29.710938 -8.800781 30.359375 -9.125 C 30.535156 -9.164062 30.6875 -9.203125 30.8125 -9.234375 C 30.9375 -9.265625 31.054688 -9.28125 31.171875 -9.28125 C 31.171875 -9.28125 31.164062 -9.125 31.15625 -8.8125 C 31.144531 -8.507812 31.140625 -8.078125 31.140625 -7.515625 C 31.140625 -6.960938 31.132812 -6.289062 31.125 -5.5 C 31.113281 -4.71875 31.097656 -3.84375 31.078125 -2.875 C 31.140625 -2.78125 31.179688 -2.6875 31.203125 -2.59375 C 31.222656 -2.5 31.234375 -2.421875 31.234375 -2.359375 C 31.234375 -2.128906 31.019531 -1.878906 30.59375 -1.609375 C 30.175781 -1.335938 29.625 -1.054688 28.9375 -0.765625 C 28.257812 -0.484375 27.484375 -0.207031 26.609375 0.0625 C 25.734375 0.332031 24.84375 0.578125 23.9375 0.796875 C 23.039062 1.015625 22.164062 1.1875 21.3125 1.3125 C 20.46875 1.4375 19.726562 1.5 19.09375 1.5 C 17.019531 1.5 15.007812 1.140625 13.0625 0.421875 C 11.113281 -0.296875 9.382812 -1.328125 7.875 -2.671875 C 6.375 -4.023438 5.171875 -5.660156 4.265625 -7.578125 C 3.359375 -9.492188 2.90625 -11.65625 2.90625 -14.0625 C 2.90625 -16.570312 3.335938 -18.925781 4.203125 -21.125 C 5.066406 -23.332031 6.28125 -25.25 7.84375 -26.875 C 9.414062 -28.507812 11.285156 -29.796875 13.453125 -30.734375 C 15.617188 -31.679688 18.007812 -32.15625 20.625 -32.15625 Z M 20.28125 -24.484375 C 19.488281 -24.484375 18.757812 -24.316406 18.09375 -23.984375 C 17.4375 -23.648438 16.832031 -23.171875 16.28125 -22.546875 C 15.738281 -21.921875 15.265625 -21.171875 14.859375 -20.296875 C 14.460938 -19.421875 14.140625 -18.457031 13.890625 -17.40625 C 15.867188 -17.75 17.507812 -18.113281 18.8125 -18.5 C 20.113281 -18.882812 21.160156 -19.269531 21.953125 -19.65625 C 22.742188 -20.050781 23.300781 -20.445312 23.625 -20.84375 C 23.945312 -21.238281 24.109375 -21.617188 24.109375 -21.984375 C 24.109375 -22.328125 23.976562 -22.648438 23.71875 -22.953125 C 23.457031 -23.265625 23.132812 -23.535156 22.75 -23.765625 C 22.375 -23.992188 21.957031 -24.171875 21.5 -24.296875 C 21.050781 -24.421875 20.644531 -24.484375 20.28125 -24.484375 Z M 20.28125 -24.484375 "/></g></g></g><g fill="#11cde3" fill-opacity="0.9412"><g transform="translate(325.446579, 352.735054)"><g><path d="M 27.015625 -23.453125 C 26.617188 -23.492188 26.171875 -23.535156 25.671875 -23.578125 C 25.171875 -23.628906 24.640625 -23.65625 24.078125 -23.65625 C 23.234375 -23.65625 22.375 -23.582031 21.5 -23.4375 C 20.625 -23.289062 19.8125 -23.003906 19.0625 -22.578125 C 18.320312 -22.160156 17.679688 -21.582031 17.140625 -20.84375 C 16.597656 -20.101562 16.253906 -19.148438 16.109375 -17.984375 C 15.972656 -16.554688 15.859375 -15.382812 15.765625 -14.46875 C 15.679688 -13.5625 15.617188 -12.8125 15.578125 -12.21875 C 15.546875 -11.632812 15.515625 -11.164062 15.484375 -10.8125 C 15.453125 -10.457031 15.425781 -10.128906 15.40625 -9.828125 C 15.40625 -9.742188 15.390625 -9.53125 15.359375 -9.1875 C 15.335938 -8.84375 15.296875 -8.4375 15.234375 -7.96875 C 15.179688 -7.507812 15.128906 -7.007812 15.078125 -6.46875 C 15.035156 -5.9375 14.984375 -5.441406 14.921875 -4.984375 C 14.867188 -4.523438 14.828125 -4.117188 14.796875 -3.765625 C 14.765625 -3.421875 14.75 -3.210938 14.75 -3.140625 C 14.75 -2.984375 14.753906 -2.851562 14.765625 -2.75 C 14.773438 -2.644531 14.78125 -2.546875 14.78125 -2.453125 C 14.78125 -2.296875 14.707031 -2.164062 14.5625 -2.0625 C 14.414062 -1.957031 14.09375 -1.835938 13.59375 -1.703125 L 5.96875 1.03125 C 5.75 1.113281 5.46875 1.210938 5.125 1.328125 C 4.78125 1.441406 4.445312 1.5 4.125 1.5 C 3.851562 1.5 3.613281 1.429688 3.40625 1.296875 C 3.207031 1.160156 3.109375 0.929688 3.109375 0.609375 L 5.59375 -27.9375 C 5.644531 -28.570312 5.710938 -29.007812 5.796875 -29.25 C 5.890625 -29.488281 6.109375 -29.648438 6.453125 -29.734375 C 8.203125 -30.078125 10.003906 -30.425781 11.859375 -30.78125 C 13.722656 -31.132812 15.53125 -31.59375 17.28125 -32.15625 C 17.4375 -32.15625 17.53125 -32.128906 17.5625 -32.078125 C 17.59375 -32.023438 17.609375 -31.953125 17.609375 -31.859375 C 17.609375 -31.828125 17.601562 -31.769531 17.59375 -31.6875 C 17.582031 -31.613281 17.550781 -31.441406 17.5 -31.171875 C 17.445312 -30.898438 17.378906 -30.488281 17.296875 -29.9375 C 17.210938 -29.394531 17.09375 -28.632812 16.9375 -27.65625 C 17.820312 -28.34375 18.796875 -28.972656 19.859375 -29.546875 C 20.929688 -30.128906 22.003906 -30.625 23.078125 -31.03125 C 24.148438 -31.445312 25.1875 -31.773438 26.1875 -32.015625 C 27.1875 -32.253906 28.0625 -32.375 28.8125 -32.375 Z M 27.015625 -23.453125 "/></g></g></g><g fill="#344265" fill-opacity="1"><g transform="translate(26.121097, 350.127603)"><g><path d="M 18.953125 -2.3125 C 18.929688 -2.132812 18.894531 -1.960938 18.84375 -1.796875 C 18.800781 -1.640625 18.675781 -1.507812 18.46875 -1.40625 C 18.382812 -1.375 18.003906 -1.238281 17.328125 -1 C 16.648438 -0.757812 15.863281 -0.476562 14.96875 -0.15625 C 14.070312 0.15625 13.1875 0.46875 12.3125 0.78125 C 11.4375 1.101562 10.769531 1.351562 10.3125 1.53125 C 10.082031 1.625 9.796875 1.722656 9.453125 1.828125 C 9.117188 1.929688 8.789062 1.984375 8.46875 1.984375 C 8.195312 1.984375 7.960938 1.914062 7.765625 1.78125 C 7.566406 1.644531 7.46875 1.394531 7.46875 1.03125 C 7.46875 0.1875 7.488281 -0.582031 7.53125 -1.28125 C 7.582031 -1.976562 7.644531 -2.710938 7.71875 -3.484375 C 7.800781 -4.253906 7.882812 -5.101562 7.96875 -6.03125 C 8.050781 -6.96875 8.128906 -8.078125 8.203125 -9.359375 C 8.304688 -11.046875 8.414062 -12.671875 8.53125 -14.234375 C 8.644531 -15.804688 8.757812 -17.4375 8.875 -19.125 L 9.28125 -24.0625 C 9.332031 -24.863281 9.382812 -25.679688 9.4375 -26.515625 C 9.5 -27.347656 9.5625 -28.207031 9.625 -29.09375 L 9.9375 -32.609375 C 9.9375 -32.648438 9.878906 -32.671875 9.765625 -32.671875 C 9.609375 -32.671875 9.347656 -32.632812 8.984375 -32.5625 C 8.617188 -32.5 8.1875 -32.414062 7.6875 -32.3125 C 7.1875 -32.21875 6.632812 -32.117188 6.03125 -32.015625 C 5.425781 -31.910156 4.804688 -31.8125 4.171875 -31.71875 C 4.023438 -31.71875 3.878906 -31.75 3.734375 -31.8125 C 3.585938 -31.882812 3.515625 -31.96875 3.515625 -32.0625 C 3.515625 -32.132812 3.535156 -32.191406 3.578125 -32.234375 L 8.234375 -40.390625 C 9.296875 -40.617188 10.4375 -40.851562 11.65625 -41.09375 C 12.875 -41.332031 14.179688 -41.546875 15.578125 -41.734375 C 16.984375 -41.929688 18.472656 -42.09375 20.046875 -42.21875 C 21.617188 -42.34375 23.289062 -42.40625 25.0625 -42.40625 C 27.0625 -42.363281 29.003906 -42.164062 30.890625 -41.8125 C 32.785156 -41.457031 34.46875 -40.863281 35.9375 -40.03125 C 37.40625 -39.195312 38.585938 -38.0625 39.484375 -36.625 C 40.378906 -35.195312 40.828125 -33.390625 40.828125 -31.203125 C 40.828125 -29.992188 40.617188 -28.878906 40.203125 -27.859375 C 39.785156 -26.835938 39.253906 -25.914062 38.609375 -25.09375 C 37.972656 -24.28125 37.269531 -23.5625 36.5 -22.9375 C 35.726562 -22.320312 34.992188 -21.789062 34.296875 -21.34375 C 33.597656 -20.90625 32.976562 -20.554688 32.4375 -20.296875 C 31.894531 -20.035156 31.53125 -19.867188 31.34375 -19.796875 C 31.34375 -19.753906 31.359375 -19.703125 31.390625 -19.640625 C 31.421875 -19.585938 31.484375 -19.476562 31.578125 -19.3125 C 31.671875 -19.15625 31.804688 -18.925781 31.984375 -18.625 C 32.171875 -18.320312 32.410156 -17.914062 32.703125 -17.40625 C 33.003906 -16.9375 33.363281 -16.316406 33.78125 -15.546875 C 34.207031 -14.785156 34.710938 -13.878906 35.296875 -12.828125 C 35.890625 -11.785156 36.566406 -10.617188 37.328125 -9.328125 C 38.097656 -8.046875 38.984375 -6.664062 39.984375 -5.1875 C 40.304688 -4.894531 40.679688 -4.710938 41.109375 -4.640625 C 41.535156 -4.578125 41.929688 -4.539062 42.296875 -4.53125 C 42.660156 -4.519531 42.96875 -4.5 43.21875 -4.46875 C 43.46875 -4.445312 43.59375 -4.332031 43.59375 -4.125 C 43.59375 -3.96875 43.429688 -3.785156 43.109375 -3.578125 C 42.796875 -3.378906 42.425781 -3.175781 42 -2.96875 C 41.582031 -2.757812 41.15625 -2.554688 40.71875 -2.359375 C 40.289062 -2.171875 39.960938 -2.019531 39.734375 -1.90625 C 39.265625 -1.675781 38.78125 -1.453125 38.28125 -1.234375 C 37.78125 -1.023438 37.242188 -0.789062 36.671875 -0.53125 C 36.097656 -0.269531 35.457031 0.03125 34.75 0.375 C 34.050781 0.71875 33.257812 1.128906 32.375 1.609375 C 32.144531 1.742188 31.929688 1.832031 31.734375 1.875 C 31.535156 1.925781 31.347656 1.953125 31.171875 1.953125 C 30.828125 1.953125 30.53125 1.867188 30.28125 1.703125 C 30.03125 1.546875 29.816406 1.351562 29.640625 1.125 C 29.472656 0.894531 29.332031 0.660156 29.21875 0.421875 C 29.113281 0.179688 29.023438 -0.015625 28.953125 -0.171875 L 20.375 -18.265625 Z M 20.71875 -21.8125 C 21.695312 -21.8125 22.710938 -22.0625 23.765625 -22.5625 C 24.828125 -23.0625 25.785156 -23.703125 26.640625 -24.484375 C 27.503906 -25.273438 28.210938 -26.171875 28.765625 -27.171875 C 29.328125 -28.171875 29.609375 -29.175781 29.609375 -30.1875 C 29.609375 -32.976562 27.941406 -34.375 24.609375 -34.375 C 23.972656 -34.375 23.441406 -34.328125 23.015625 -34.234375 C 22.597656 -34.148438 22.210938 -34.085938 21.859375 -34.046875 Z M 20.71875 -21.8125 "/></g></g></g><g fill="#344265" fill-opacity="1"><g transform="translate(68.550533, 350.127603)"><g><path d="M 20.625 -32.15625 C 22.445312 -32.15625 24.101562 -31.8125 25.59375 -31.125 C 27.082031 -30.445312 28.359375 -29.5625 29.421875 -28.46875 C 30.492188 -27.382812 31.316406 -26.171875 31.890625 -24.828125 C 32.460938 -23.484375 32.75 -22.140625 32.75 -20.796875 C 32.75 -19.609375 32.382812 -18.410156 31.65625 -17.203125 C 30.925781 -16.003906 29.90625 -14.925781 28.59375 -13.96875 C 27.28125 -13.007812 25.703125 -12.234375 23.859375 -11.640625 C 22.015625 -11.046875 19.988281 -10.75 17.78125 -10.75 C 16.625 -10.75 15.410156 -10.863281 14.140625 -11.09375 C 14.222656 -10.269531 14.460938 -9.554688 14.859375 -8.953125 C 15.265625 -8.359375 15.773438 -7.867188 16.390625 -7.484375 C 17.003906 -7.109375 17.695312 -6.828125 18.46875 -6.640625 C 19.25 -6.453125 20.054688 -6.359375 20.890625 -6.359375 C 21.804688 -6.359375 22.691406 -6.441406 23.546875 -6.609375 C 24.398438 -6.773438 25.222656 -6.988281 26.015625 -7.25 C 26.804688 -7.519531 27.566406 -7.816406 28.296875 -8.140625 C 29.023438 -8.472656 29.710938 -8.800781 30.359375 -9.125 C 30.535156 -9.164062 30.6875 -9.203125 30.8125 -9.234375 C 30.9375 -9.265625 31.054688 -9.28125 31.171875 -9.28125 C 31.171875 -9.28125 31.164062 -9.125 31.15625 -8.8125 C 31.144531 -8.507812 31.140625 -8.078125 31.140625 -7.515625 C 31.140625 -6.960938 31.132812 -6.289062 31.125 -5.5 C 31.113281 -4.71875 31.097656 -3.84375 31.078125 -2.875 C 31.140625 -2.78125 31.179688 -2.6875 31.203125 -2.59375 C 31.222656 -2.5 31.234375 -2.421875 31.234375 -2.359375 C 31.234375 -2.128906 31.019531 -1.878906 30.59375 -1.609375 C 30.175781 -1.335938 29.625 -1.054688 28.9375 -0.765625 C 28.257812 -0.484375 27.484375 -0.207031 26.609375 0.0625 C 25.734375 0.332031 24.84375 0.578125 23.9375 0.796875 C 23.039062 1.015625 22.164062 1.1875 21.3125 1.3125 C 20.46875 1.4375 19.726562 1.5 19.09375 1.5 C 17.019531 1.5 15.007812 1.140625 13.0625 0.421875 C 11.113281 -0.296875 9.382812 -1.328125 7.875 -2.671875 C 6.375 -4.023438 5.171875 -5.660156 4.265625 -7.578125 C 3.359375 -9.492188 2.90625 -11.65625 2.90625 -14.0625 C 2.90625 -16.570312 3.335938 -18.925781 4.203125 -21.125 C 5.066406 -23.332031 6.28125 -25.25 7.84375 -26.875 C 9.414062 -28.507812 11.285156 -29.796875 13.453125 -30.734375 C 15.617188 -31.679688 18.007812 -32.15625 20.625 -32.15625 Z M 20.28125 -24.484375 C 19.488281 -24.484375 18.757812 -24.316406 18.09375 -23.984375 C 17.4375 -23.648438 16.832031 -23.171875 16.28125 -22.546875 C 15.738281 -21.921875 15.265625 -21.171875 14.859375 -20.296875 C 14.460938 -19.421875 14.140625 -18.457031 13.890625 -17.40625 C 15.867188 -17.75 17.507812 -18.113281 18.8125 -18.5 C 20.113281 -18.882812 21.160156 -19.269531 21.953125 -19.65625 C 22.742188 -20.050781 23.300781 -20.445312 23.625 -20.84375 C 23.945312 -21.238281 24.109375 -21.617188 24.109375 -21.984375 C 24.109375 -22.328125 23.976562 -22.648438 23.71875 -22.953125 C 23.457031 -23.265625 23.132812 -23.535156 22.75 -23.765625 C 22.375 -23.992188 21.957031 -24.171875 21.5 -24.296875 C 21.050781 -24.421875 20.644531 -24.484375 20.28125 -24.484375 Z M 20.28125 -24.484375 "/></g></g></g><g fill="#344265" fill-opacity="1"><g transform="translate(101.445589, 350.127603)"><g><path d="M 16.328125 -20.109375 C 16.210938 -18.265625 16.113281 -16.765625 16.03125 -15.609375 C 15.945312 -14.460938 15.875 -13.523438 15.8125 -12.796875 C 15.757812 -12.078125 15.710938 -11.507812 15.671875 -11.09375 C 15.628906 -10.6875 15.597656 -10.300781 15.578125 -9.9375 C 16.023438 -8.78125 16.679688 -7.84375 17.546875 -7.125 C 18.410156 -6.40625 19.445312 -6.046875 20.65625 -6.046875 C 21.707031 -6.046875 22.628906 -6.375 23.421875 -7.03125 C 24.222656 -7.695312 24.890625 -8.554688 25.421875 -9.609375 C 25.953125 -10.671875 26.347656 -11.851562 26.609375 -13.15625 C 26.878906 -14.46875 27.015625 -15.769531 27.015625 -17.0625 C 27.015625 -18.113281 26.921875 -19.085938 26.734375 -19.984375 C 26.554688 -20.890625 26.285156 -21.671875 25.921875 -22.328125 C 25.554688 -22.992188 25.097656 -23.515625 24.546875 -23.890625 C 24.003906 -24.265625 23.359375 -24.453125 22.609375 -24.453125 C 21.992188 -24.453125 21.382812 -24.332031 20.78125 -24.09375 C 20.175781 -23.851562 19.59375 -23.546875 19.03125 -23.171875 C 18.476562 -22.796875 17.976562 -22.375 17.53125 -21.90625 C 17.082031 -21.4375 16.710938 -20.984375 16.421875 -20.546875 Z M 16.90625 -28.546875 C 18.519531 -29.640625 20.207031 -30.515625 21.96875 -31.171875 C 23.738281 -31.828125 25.585938 -32.15625 27.515625 -32.15625 C 29.316406 -32.15625 30.875 -31.785156 32.1875 -31.046875 C 33.507812 -30.304688 34.601562 -29.304688 35.46875 -28.046875 C 36.332031 -26.785156 36.96875 -25.335938 37.375 -23.703125 C 37.789062 -22.078125 38 -20.367188 38 -18.578125 C 38 -17.023438 37.84375 -15.453125 37.53125 -13.859375 C 37.226562 -12.265625 36.78125 -10.722656 36.1875 -9.234375 C 35.59375 -7.742188 34.851562 -6.34375 33.96875 -5.03125 C 33.082031 -3.726562 32.066406 -2.59375 30.921875 -1.625 C 29.785156 -0.65625 28.515625 0.101562 27.109375 0.65625 C 25.703125 1.21875 24.1875 1.5 22.5625 1.5 C 21.113281 1.5 19.734375 1.207031 18.421875 0.625 C 17.109375 0.0507812 15.875 -0.691406 14.71875 -1.609375 C 14.71875 -1.515625 14.691406 -1.164062 14.640625 -0.5625 C 14.597656 0.0390625 14.535156 0.773438 14.453125 1.640625 C 14.378906 2.503906 14.296875 3.429688 14.203125 4.421875 C 14.109375 5.410156 14.019531 6.335938 13.9375 7.203125 C 13.863281 8.066406 13.800781 8.800781 13.75 9.40625 C 13.707031 10.007812 13.6875 10.359375 13.6875 10.453125 C 13.6875 10.609375 13.691406 10.738281 13.703125 10.84375 C 13.710938 10.945312 13.71875 11.050781 13.71875 11.15625 C 13.71875 11.300781 13.644531 11.425781 13.5 11.53125 C 13.351562 11.644531 13.03125 11.765625 12.53125 11.890625 L 4.953125 13.828125 C 4.742188 13.890625 4.460938 13.984375 4.109375 14.109375 C 3.765625 14.234375 3.429688 14.296875 3.109375 14.296875 C 2.835938 14.296875 2.601562 14.226562 2.40625 14.09375 C 2.207031 13.957031 2.109375 13.707031 2.109375 13.34375 L 5.625 -28.84375 C 5.675781 -29.46875 5.742188 -29.898438 5.828125 -30.140625 C 5.921875 -30.390625 6.140625 -30.550781 6.484375 -30.625 C 8.234375 -30.96875 10.03125 -31.316406 11.875 -31.671875 C 13.71875 -32.023438 15.507812 -32.484375 17.25 -33.046875 C 17.40625 -33.046875 17.5 -33.019531 17.53125 -32.96875 C 17.5625 -32.925781 17.578125 -32.851562 17.578125 -32.75 C 17.578125 -32.71875 17.570312 -32.660156 17.5625 -32.578125 C 17.550781 -32.503906 17.519531 -32.332031 17.46875 -32.0625 C 17.425781 -31.789062 17.359375 -31.378906 17.265625 -30.828125 C 17.179688 -30.285156 17.0625 -29.523438 16.90625 -28.546875 Z M 16.90625 -28.546875 "/></g></g></g><g fill="#344265" fill-opacity="1"><g transform="translate(139.611919, 350.127603)"><g><path d="M 19.296875 1.5 C 16.585938 1.5 14.210938 1.054688 12.171875 0.171875 C 10.128906 -0.710938 8.414062 -1.890625 7.03125 -3.359375 C 5.644531 -4.828125 4.601562 -6.515625 3.90625 -8.421875 C 3.21875 -10.335938 2.875 -12.320312 2.875 -14.375 C 2.875 -16.425781 3.207031 -18.378906 3.875 -20.234375 C 4.550781 -22.085938 5.492188 -23.75 6.703125 -25.21875 C 7.921875 -26.6875 9.375 -27.914062 11.0625 -28.90625 C 12.75 -29.894531 14.613281 -30.5625 16.65625 -30.90625 C 16.957031 -30.925781 17.109375 -30.992188 17.109375 -31.109375 C 17.109375 -31.328125 17.082031 -31.523438 17.03125 -31.703125 C 16.988281 -31.890625 16.96875 -32.046875 16.96875 -32.171875 C 16.96875 -32.390625 17.003906 -32.535156 17.078125 -32.609375 C 17.160156 -32.691406 17.25 -32.734375 17.34375 -32.734375 C 21.007812 -32.734375 24.128906 -32.3125 26.703125 -31.46875 C 29.273438 -30.632812 31.367188 -29.5 32.984375 -28.0625 C 34.597656 -26.625 35.769531 -24.921875 36.5 -22.953125 C 37.226562 -20.992188 37.59375 -18.894531 37.59375 -16.65625 C 37.59375 -13.789062 37.113281 -11.234375 36.15625 -8.984375 C 35.195312 -6.742188 33.882812 -4.84375 32.21875 -3.28125 C 30.5625 -1.726562 28.625 -0.546875 26.40625 0.265625 C 24.1875 1.085938 21.816406 1.5 19.296875 1.5 Z M 13.96875 -14.6875 C 13.96875 -13.65625 14.078125 -12.628906 14.296875 -11.609375 C 14.523438 -10.585938 14.890625 -9.664062 15.390625 -8.84375 C 15.898438 -8.019531 16.566406 -7.351562 17.390625 -6.84375 C 18.222656 -6.332031 19.253906 -6.078125 20.484375 -6.078125 C 21.367188 -6.117188 22.140625 -6.316406 22.796875 -6.671875 C 23.460938 -7.023438 24.035156 -7.484375 24.515625 -8.046875 C 24.992188 -8.617188 25.390625 -9.257812 25.703125 -9.96875 C 26.023438 -10.675781 26.273438 -11.410156 26.453125 -12.171875 C 26.640625 -12.929688 26.769531 -13.675781 26.84375 -14.40625 C 26.925781 -15.132812 26.96875 -15.796875 26.96875 -16.390625 C 26.96875 -17.390625 26.816406 -18.367188 26.515625 -19.328125 C 26.222656 -20.285156 25.785156 -21.128906 25.203125 -21.859375 C 24.628906 -22.585938 23.914062 -23.175781 23.0625 -23.625 C 22.207031 -24.082031 21.222656 -24.3125 20.109375 -24.3125 C 18.953125 -24.3125 17.976562 -23.96875 17.1875 -23.28125 C 16.40625 -22.601562 15.78125 -21.765625 15.3125 -20.765625 C 14.84375 -19.765625 14.5 -18.710938 14.28125 -17.609375 C 14.070312 -16.503906 13.96875 -15.53125 13.96875 -14.6875 Z M 13.96875 -14.6875 "/></g></g></g><g fill="#344265" fill-opacity="1"><g transform="translate(177.432591, 350.127603)"><g><path d="M 18.953125 -2.3125 C 18.929688 -2.132812 18.894531 -1.960938 18.84375 -1.796875 C 18.800781 -1.640625 18.675781 -1.507812 18.46875 -1.40625 C 18.382812 -1.375 18.003906 -1.238281 17.328125 -1 C 16.648438 -0.757812 15.863281 -0.476562 14.96875 -0.15625 C 14.070312 0.15625 13.1875 0.46875 12.3125 0.78125 C 11.4375 1.101562 10.769531 1.351562 10.3125 1.53125 C 10.082031 1.625 9.796875 1.722656 9.453125 1.828125 C 9.117188 1.929688 8.789062 1.984375 8.46875 1.984375 C 8.195312 1.984375 7.960938 1.914062 7.765625 1.78125 C 7.566406 1.644531 7.46875 1.394531 7.46875 1.03125 C 7.46875 0.1875 7.488281 -0.582031 7.53125 -1.28125 C 7.582031 -1.976562 7.644531 -2.710938 7.71875 -3.484375 C 7.800781 -4.253906 7.882812 -5.101562 7.96875 -6.03125 C 8.050781 -6.96875 8.128906 -8.078125 8.203125 -9.359375 C 8.304688 -11.046875 8.414062 -12.671875 8.53125 -14.234375 C 8.644531 -15.804688 8.757812 -17.4375 8.875 -19.125 L 9.28125 -24.0625 C 9.332031 -24.863281 9.382812 -25.679688 9.4375 -26.515625 C 9.5 -27.347656 9.5625 -28.207031 9.625 -29.09375 L 9.9375 -32.609375 C 9.9375 -32.648438 9.878906 -32.671875 9.765625 -32.671875 C 9.609375 -32.671875 9.347656 -32.632812 8.984375 -32.5625 C 8.617188 -32.5 8.1875 -32.414062 7.6875 -32.3125 C 7.1875 -32.21875 6.632812 -32.117188 6.03125 -32.015625 C 5.425781 -31.910156 4.804688 -31.8125 4.171875 -31.71875 C 4.023438 -31.71875 3.878906 -31.75 3.734375 -31.8125 C 3.585938 -31.882812 3.515625 -31.96875 3.515625 -32.0625 C 3.515625 -32.132812 3.535156 -32.191406 3.578125 -32.234375 L 8.234375 -40.390625 C 9.296875 -40.617188 10.4375 -40.851562 11.65625 -41.09375 C 12.875 -41.332031 14.179688 -41.546875 15.578125 -41.734375 C 16.984375 -41.929688 18.472656 -42.09375 20.046875 -42.21875 C 21.617188 -42.34375 23.289062 -42.40625 25.0625 -42.40625 C 27.0625 -42.363281 29.003906 -42.164062 30.890625 -41.8125 C 32.785156 -41.457031 34.46875 -40.863281 35.9375 -40.03125 C 37.40625 -39.195312 38.585938 -38.0625 39.484375 -36.625 C 40.378906 -35.195312 40.828125 -33.390625 40.828125 -31.203125 C 40.828125 -29.992188 40.617188 -28.878906 40.203125 -27.859375 C 39.785156 -26.835938 39.253906 -25.914062 38.609375 -25.09375 C 37.972656 -24.28125 37.269531 -23.5625 36.5 -22.9375 C 35.726562 -22.320312 34.992188 -21.789062 34.296875 -21.34375 C 33.597656 -20.90625 32.976562 -20.554688 32.4375 -20.296875 C 31.894531 -20.035156 31.53125 -19.867188 31.34375 -19.796875 C 31.34375 -19.753906 31.359375 -19.703125 31.390625 -19.640625 C 31.421875 -19.585938 31.484375 -19.476562 31.578125 -19.3125 C 31.671875 -19.15625 31.804688 -18.925781 31.984375 -18.625 C 32.171875 -18.320312 32.410156 -17.914062 32.703125 -17.40625 C 33.003906 -16.9375 33.363281 -16.316406 33.78125 -15.546875 C 34.207031 -14.785156 34.710938 -13.878906 35.296875 -12.828125 C 35.890625 -11.785156 36.566406 -10.617188 37.328125 -9.328125 C 38.097656 -8.046875 38.984375 -6.664062 39.984375 -5.1875 C 40.304688 -4.894531 40.679688 -4.710938 41.109375 -4.640625 C 41.535156 -4.578125 41.929688 -4.539062 42.296875 -4.53125 C 42.660156 -4.519531 42.96875 -4.5 43.21875 -4.46875 C 43.46875 -4.445312 43.59375 -4.332031 43.59375 -4.125 C 43.59375 -3.96875 43.429688 -3.785156 43.109375 -3.578125 C 42.796875 -3.378906 42.425781 -3.175781 42 -2.96875 C 41.582031 -2.757812 41.15625 -2.554688 40.71875 -2.359375 C 40.289062 -2.171875 39.960938 -2.019531 39.734375 -1.90625 C 39.265625 -1.675781 38.78125 -1.453125 38.28125 -1.234375 C 37.78125 -1.023438 37.242188 -0.789062 36.671875 -0.53125 C 36.097656 -0.269531 35.457031 0.03125 34.75 0.375 C 34.050781 0.71875 33.257812 1.128906 32.375 1.609375 C 32.144531 1.742188 31.929688 1.832031 31.734375 1.875 C 31.535156 1.925781 31.347656 1.953125 31.171875 1.953125 C 30.828125 1.953125 30.53125 1.867188 30.28125 1.703125 C 30.03125 1.546875 29.816406 1.351562 29.640625 1.125 C 29.472656 0.894531 29.332031 0.660156 29.21875 0.421875 C 29.113281 0.179688 29.023438 -0.015625 28.953125 -0.171875 L 20.375 -18.265625 Z M 20.71875 -21.8125 C 21.695312 -21.8125 22.710938 -22.0625 23.765625 -22.5625 C 24.828125 -23.0625 25.785156 -23.703125 26.640625 -24.484375 C 27.503906 -25.273438 28.210938 -26.171875 28.765625 -27.171875 C 29.328125 -28.171875 29.609375 -29.175781 29.609375 -30.1875 C 29.609375 -32.976562 27.941406 -34.375 24.609375 -34.375 C 23.972656 -34.375 23.441406 -34.328125 23.015625 -34.234375 C 22.597656 -34.148438 22.210938 -34.085938 21.859375 -34.046875 Z M 20.71875 -21.8125 "/></g></g></g><g fill="#344265" fill-opacity="1"><g transform="translate(219.862028, 350.127603)"><g><path d="M 19.296875 1.5 C 16.585938 1.5 14.210938 1.054688 12.171875 0.171875 C 10.128906 -0.710938 8.414062 -1.890625 7.03125 -3.359375 C 5.644531 -4.828125 4.601562 -6.515625 3.90625 -8.421875 C 3.21875 -10.335938 2.875 -12.320312 2.875 -14.375 C 2.875 -16.425781 3.207031 -18.378906 3.875 -20.234375 C 4.550781 -22.085938 5.492188 -23.75 6.703125 -25.21875 C 7.921875 -26.6875 9.375 -27.914062 11.0625 -28.90625 C 12.75 -29.894531 14.613281 -30.5625 16.65625 -30.90625 C 16.957031 -30.925781 17.109375 -30.992188 17.109375 -31.109375 C 17.109375 -31.328125 17.082031 -31.523438 17.03125 -31.703125 C 16.988281 -31.890625 16.96875 -32.046875 16.96875 -32.171875 C 16.96875 -32.390625 17.003906 -32.535156 17.078125 -32.609375 C 17.160156 -32.691406 17.25 -32.734375 17.34375 -32.734375 C 21.007812 -32.734375 24.128906 -32.3125 26.703125 -31.46875 C 29.273438 -30.632812 31.367188 -29.5 32.984375 -28.0625 C 34.597656 -26.625 35.769531 -24.921875 36.5 -22.953125 C 37.226562 -20.992188 37.59375 -18.894531 37.59375 -16.65625 C 37.59375 -13.789062 37.113281 -11.234375 36.15625 -8.984375 C 35.195312 -6.742188 33.882812 -4.84375 32.21875 -3.28125 C 30.5625 -1.726562 28.625 -0.546875 26.40625 0.265625 C 24.1875 1.085938 21.816406 1.5 19.296875 1.5 Z M 13.96875 -14.6875 C 13.96875 -13.65625 14.078125 -12.628906 14.296875 -11.609375 C 14.523438 -10.585938 14.890625 -9.664062 15.390625 -8.84375 C 15.898438 -8.019531 16.566406 -7.351562 17.390625 -6.84375 C 18.222656 -6.332031 19.253906 -6.078125 20.484375 -6.078125 C 21.367188 -6.117188 22.140625 -6.316406 22.796875 -6.671875 C 23.460938 -7.023438 24.035156 -7.484375 24.515625 -8.046875 C 24.992188 -8.617188 25.390625 -9.257812 25.703125 -9.96875 C 26.023438 -10.675781 26.273438 -11.410156 26.453125 -12.171875 C 26.640625 -12.929688 26.769531 -13.675781 26.84375 -14.40625 C 26.925781 -15.132812 26.96875 -15.796875 26.96875 -16.390625 C 26.96875 -17.390625 26.816406 -18.367188 26.515625 -19.328125 C 26.222656 -20.285156 25.785156 -21.128906 25.203125 -21.859375 C 24.628906 -22.585938 23.914062 -23.175781 23.0625 -23.625 C 22.207031 -24.082031 21.222656 -24.3125 20.109375 -24.3125 C 18.953125 -24.3125 17.976562 -23.96875 17.1875 -23.28125 C 16.40625 -22.601562 15.78125 -21.765625 15.3125 -20.765625 C 14.84375 -19.765625 14.5 -18.710938 14.28125 -17.609375 C 14.070312 -16.503906 13.96875 -15.53125 13.96875 -14.6875 Z M 13.96875 -14.6875 "/></g></g></g><g fill="#344265" fill-opacity="1"><g transform="translate(257.682712, 350.127603)"><g><path d="M 24.625 -31.859375 C 24.707031 -32.054688 24.851562 -32.15625 25.0625 -32.15625 C 25.101562 -32.15625 25.140625 -32.148438 25.171875 -32.140625 C 25.210938 -32.128906 25.253906 -32.125 25.296875 -32.125 C 26.734375 -31.5625 28.207031 -31.101562 29.71875 -30.75 C 31.238281 -30.394531 32.75 -30.054688 34.25 -29.734375 C 34.613281 -29.648438 34.796875 -29.4375 34.796875 -29.09375 C 34.796875 -28.84375 34.679688 -28.457031 34.453125 -27.9375 L 22.59375 -2.703125 C 22.4375 -2.359375 22.300781 -2.082031 22.1875 -1.875 C 22.070312 -1.664062 21.957031 -1.492188 21.84375 -1.359375 C 21.726562 -1.222656 21.601562 -1.125 21.46875 -1.0625 C 21.332031 -1.007812 21.164062 -0.960938 20.96875 -0.921875 C 19.507812 -0.628906 18.03125 -0.296875 16.53125 0.078125 C 15.039062 0.453125 13.488281 0.914062 11.875 1.46875 C 11.832031 1.46875 11.800781 1.472656 11.78125 1.484375 C 11.757812 1.492188 11.738281 1.5 11.71875 1.5 L 11.53125 1.5 C 11.425781 1.5 11.34375 1.460938 11.28125 1.390625 C 11.226562 1.328125 11.191406 1.265625 11.171875 1.203125 C 10.890625 0.378906 10.5625 -0.679688 10.1875 -1.984375 C 9.8125 -3.296875 9.398438 -4.753906 8.953125 -6.359375 C 8.515625 -7.972656 8.054688 -9.691406 7.578125 -11.515625 C 7.097656 -13.347656 6.609375 -15.203125 6.109375 -17.078125 C 5.609375 -18.960938 5.113281 -20.832031 4.625 -22.6875 C 4.132812 -24.539062 3.660156 -26.289062 3.203125 -27.9375 C 3.023438 -28.539062 2.9375 -28.96875 2.9375 -29.21875 C 2.9375 -29.476562 3.09375 -29.648438 3.40625 -29.734375 C 4.894531 -30.054688 6.445312 -30.394531 8.0625 -30.75 C 9.675781 -31.101562 11.203125 -31.5625 12.640625 -32.125 C 12.703125 -32.144531 12.789062 -32.15625 12.90625 -32.15625 C 13.15625 -32.15625 13.289062 -32.054688 13.3125 -31.859375 L 17.109375 -12.5 C 17.203125 -12.726562 17.363281 -13.144531 17.59375 -13.75 C 17.832031 -14.351562 18.113281 -15.078125 18.4375 -15.921875 C 18.757812 -16.773438 19.117188 -17.707031 19.515625 -18.71875 C 19.910156 -19.738281 20.3125 -20.773438 20.71875 -21.828125 C 21.132812 -22.890625 21.546875 -23.941406 21.953125 -24.984375 C 22.359375 -26.035156 22.738281 -27.007812 23.09375 -27.90625 C 23.445312 -28.8125 23.757812 -29.609375 24.03125 -30.296875 C 24.300781 -30.992188 24.5 -31.515625 24.625 -31.859375 Z M 24.625 -31.859375 "/></g></g></g><g fill="#344265" fill-opacity="1"><g transform="translate(289.944063, 350.127603)"><g><path d="M 20.625 -32.15625 C 22.445312 -32.15625 24.101562 -31.8125 25.59375 -31.125 C 27.082031 -30.445312 28.359375 -29.5625 29.421875 -28.46875 C 30.492188 -27.382812 31.316406 -26.171875 31.890625 -24.828125 C 32.460938 -23.484375 32.75 -22.140625 32.75 -20.796875 C 32.75 -19.609375 32.382812 -18.410156 31.65625 -17.203125 C 30.925781 -16.003906 29.90625 -14.925781 28.59375 -13.96875 C 27.28125 -13.007812 25.703125 -12.234375 23.859375 -11.640625 C 22.015625 -11.046875 19.988281 -10.75 17.78125 -10.75 C 16.625 -10.75 15.410156 -10.863281 14.140625 -11.09375 C 14.222656 -10.269531 14.460938 -9.554688 14.859375 -8.953125 C 15.265625 -8.359375 15.773438 -7.867188 16.390625 -7.484375 C 17.003906 -7.109375 17.695312 -6.828125 18.46875 -6.640625 C 19.25 -6.453125 20.054688 -6.359375 20.890625 -6.359375 C 21.804688 -6.359375 22.691406 -6.441406 23.546875 -6.609375 C 24.398438 -6.773438 25.222656 -6.988281 26.015625 -7.25 C 26.804688 -7.519531 27.566406 -7.816406 28.296875 -8.140625 C 29.023438 -8.472656 29.710938 -8.800781 30.359375 -9.125 C 30.535156 -9.164062 30.6875 -9.203125 30.8125 -9.234375 C 30.9375 -9.265625 31.054688 -9.28125 31.171875 -9.28125 C 31.171875 -9.28125 31.164062 -9.125 31.15625 -8.8125 C 31.144531 -8.507812 31.140625 -8.078125 31.140625 -7.515625 C 31.140625 -6.960938 31.132812 -6.289062 31.125 -5.5 C 31.113281 -4.71875 31.097656 -3.84375 31.078125 -2.875 C 31.140625 -2.78125 31.179688 -2.6875 31.203125 -2.59375 C 31.222656 -2.5 31.234375 -2.421875 31.234375 -2.359375 C 31.234375 -2.128906 31.019531 -1.878906 30.59375 -1.609375 C 30.175781 -1.335938 29.625 -1.054688 28.9375 -0.765625 C 28.257812 -0.484375 27.484375 -0.207031 26.609375 0.0625 C 25.734375 0.332031 24.84375 0.578125 23.9375 0.796875 C 23.039062 1.015625 22.164062 1.1875 21.3125 1.3125 C 20.46875 1.4375 19.726562 1.5 19.09375 1.5 C 17.019531 1.5 15.007812 1.140625 13.0625 0.421875 C 11.113281 -0.296875 9.382812 -1.328125 7.875 -2.671875 C 6.375 -4.023438 5.171875 -5.660156 4.265625 -7.578125 C 3.359375 -9.492188 2.90625 -11.65625 2.90625 -14.0625 C 2.90625 -16.570312 3.335938 -18.925781 4.203125 -21.125 C 5.066406 -23.332031 6.28125 -25.25 7.84375 -26.875 C 9.414062 -28.507812 11.285156 -29.796875 13.453125 -30.734375 C 15.617188 -31.679688 18.007812 -32.15625 20.625 -32.15625 Z M 20.28125 -24.484375 C 19.488281 -24.484375 18.757812 -24.316406 18.09375 -23.984375 C 17.4375 -23.648438 16.832031 -23.171875 16.28125 -22.546875 C 15.738281 -21.921875 15.265625 -21.171875 14.859375 -20.296875 C 14.460938 -19.421875 14.140625 -18.457031 13.890625 -17.40625 C 15.867188 -17.75 17.507812 -18.113281 18.8125 -18.5 C 20.113281 -18.882812 21.160156 -19.269531 21.953125 -19.65625 C 22.742188 -20.050781 23.300781 -20.445312 23.625 -20.84375 C 23.945312 -21.238281 24.109375 -21.617188 24.109375 -21.984375 C 24.109375 -22.328125 23.976562 -22.648438 23.71875 -22.953125 C 23.457031 -23.265625 23.132812 -23.535156 22.75 -23.765625 C 22.375 -23.992188 21.957031 -24.171875 21.5 -24.296875 C 21.050781 -24.421875 20.644531 -24.484375 20.28125 -24.484375 Z M 20.28125 -24.484375 "/></g></g></g><g fill="#344265" fill-opacity="1"><g transform="translate(322.839118, 350.127603)"><g><path d="M 27.015625 -23.453125 C 26.617188 -23.492188 26.171875 -23.535156 25.671875 -23.578125 C 25.171875 -23.628906 24.640625 -23.65625 24.078125 -23.65625 C 23.234375 -23.65625 22.375 -23.582031 21.5 -23.4375 C 20.625 -23.289062 19.8125 -23.003906 19.0625 -22.578125 C 18.320312 -22.160156 17.679688 -21.582031 17.140625 -20.84375 C 16.597656 -20.101562 16.253906 -19.148438 16.109375 -17.984375 C 15.972656 -16.554688 15.859375 -15.382812 15.765625 -14.46875 C 15.679688 -13.5625 15.617188 -12.8125 15.578125 -12.21875 C 15.546875 -11.632812 15.515625 -11.164062 15.484375 -10.8125 C 15.453125 -10.457031 15.425781 -10.128906 15.40625 -9.828125 C 15.40625 -9.742188 15.390625 -9.53125 15.359375 -9.1875 C 15.335938 -8.84375 15.296875 -8.4375 15.234375 -7.96875 C 15.179688 -7.507812 15.128906 -7.007812 15.078125 -6.46875 C 15.035156 -5.9375 14.984375 -5.441406 14.921875 -4.984375 C 14.867188 -4.523438 14.828125 -4.117188 14.796875 -3.765625 C 14.765625 -3.421875 14.75 -3.210938 14.75 -3.140625 C 14.75 -2.984375 14.753906 -2.851562 14.765625 -2.75 C 14.773438 -2.644531 14.78125 -2.546875 14.78125 -2.453125 C 14.78125 -2.296875 14.707031 -2.164062 14.5625 -2.0625 C 14.414062 -1.957031 14.09375 -1.835938 13.59375 -1.703125 L 5.96875 1.03125 C 5.75 1.113281 5.46875 1.210938 5.125 1.328125 C 4.78125 1.441406 4.445312 1.5 4.125 1.5 C 3.851562 1.5 3.613281 1.429688 3.40625 1.296875 C 3.207031 1.160156 3.109375 0.929688 3.109375 0.609375 L 5.59375 -27.9375 C 5.644531 -28.570312 5.710938 -29.007812 5.796875 -29.25 C 5.890625 -29.488281 6.109375 -29.648438 6.453125 -29.734375 C 8.203125 -30.078125 10.003906 -30.425781 11.859375 -30.78125 C 13.722656 -31.132812 15.53125 -31.59375 17.28125 -32.15625 C 17.4375 -32.15625 17.53125 -32.128906 17.5625 -32.078125 C 17.59375 -32.023438 17.609375 -31.953125 17.609375 -31.859375 C 17.609375 -31.828125 17.601562 -31.769531 17.59375 -31.6875 C 17.582031 -31.613281 17.550781 -31.441406 17.5 -31.171875 C 17.445312 -30.898438 17.378906 -30.488281 17.296875 -29.9375 C 17.210938 -29.394531 17.09375 -28.632812 16.9375 -27.65625 C 17.820312 -28.34375 18.796875 -28.972656 19.859375 -29.546875 C 20.929688 -30.128906 22.003906 -30.625 23.078125 -31.03125 C 24.148438 -31.445312 25.1875 -31.773438 26.1875 -32.015625 C 27.1875 -32.253906 28.0625 -32.375 28.8125 -32.375 Z M 27.015625 -23.453125 "/></g></g></g></svg>