<svg xmlns="http://www.w3.org/2000/svg" xmlns:xlink="http://www.w3.org/1999/xlink" width="500" zoomAndPan="magnify" viewBox="0 0 375 374.999991" height="500" preserveAspectRatio="xMidYMid meet" version="1.0"><defs><g/><clipPath id="61e6a48e73"><path d="M 70.160156 5 L 304.480469 5 L 304.480469 301.984375 L 70.160156 301.984375 Z M 70.160156 5 " clip-rule="nonzero"/></clipPath></defs><g clip-path="url(#61e6a48e73)"><path fill="#344265" d="M 292.679688 84.34375 C 289.441406 63.589844 282.074219 37.847656 271.980469 22.289062 C 267.445312 15.296875 262.171875 10.054688 256.148438 7.59375 C 249.0625 4.695312 241.691406 5.511719 234.246094 11.402344 C 227.222656 16.949219 220.042969 27.6875 212.957031 45.289062 L 161.460938 45.289062 C 154.378906 27.6875 147.195312 16.953125 140.175781 11.402344 C 132.726562 5.511719 125.363281 4.695312 118.269531 7.59375 C 112.253906 10.054688 106.972656 15.296875 102.4375 22.289062 C 92.277344 37.972656 84.871094 63.992188 81.671875 84.832031 C 74.457031 96.921875 70.296875 111.027344 70.296875 126.054688 L 70.296875 134.132812 C 70.296875 167.507812 90.796875 196.328125 119.8125 208.59375 C 118.792969 214.859375 118.25 220.992188 118.195312 226.929688 C 118.015625 244.769531 122.214844 260.734375 130.519531 273.351562 C 139.042969 286.304688 151.726562 295.609375 168.277344 299.730469 C 174.097656 301.175781 180.425781 301.972656 187.265625 302.039062 L 187.386719 302.039062 C 194.226562 301.972656 200.554688 301.175781 206.371094 299.730469 C 222.925781 295.601562 235.609375 286.304688 244.132812 273.351562 C 252.429688 260.742188 256.636719 244.777344 256.457031 226.929688 C 256.394531 220.996094 255.859375 214.867188 254.839844 208.601562 C 264.546875 204.5 273.304688 198.539062 280.65625 191.191406 C 295.285156 176.558594 304.355469 156.355469 304.355469 134.140625 L 304.355469 126.0625 C 304.355469 110.820312 300.085938 96.535156 292.679688 84.34375 Z M 244.214844 24.015625 C 246.515625 22.199219 248.46875 21.816406 250.097656 22.488281 C 252.804688 23.59375 255.65625 26.691406 258.492188 31.066406 C 263.445312 38.710938 267.6875 49.4375 270.96875 60.738281 C 268.027344 58.597656 264.9375 56.648438 261.726562 54.90625 C 261.726562 54.90625 261.730469 54.90625 261.730469 54.90625 C 255.640625 36.605469 247.550781 27.714844 238.566406 46.679688 C 235.847656 46.164062 233.085938 45.789062 230.277344 45.554688 C 235.265625 34.253906 239.917969 27.40625 244.214844 24.015625 Z M 115.933594 31.058594 C 118.769531 26.683594 121.621094 23.59375 124.328125 22.480469 C 125.964844 21.808594 127.917969 22.195312 130.210938 24.011719 C 134.5 27.40625 139.160156 34.253906 144.15625 45.5625 C 141.894531 45.753906 139.652344 46.042969 137.449219 46.417969 C 128.671875 28.132812 120.75 36.386719 114.726562 53.949219 C 110.753906 55.964844 106.964844 58.300781 103.402344 60.921875 C 106.691406 49.550781 110.953125 38.746094 115.933594 31.058594 Z M 230.703125 264.511719 C 224.40625 274.085938 214.945312 280.980469 202.527344 284.074219 C 197.835938 285.242188 192.765625 285.886719 187.324219 285.945312 C 181.886719 285.886719 176.816406 285.246094 172.121094 284.074219 C 159.707031 280.980469 150.246094 274.085938 143.949219 264.511719 C 137.425781 254.605469 134.125 241.71875 134.273438 227.050781 C 134.316406 222.648438 134.679688 218.078125 135.363281 213.367188 C 140.429688 214.375 145.664062 214.902344 151.007812 214.902344 L 181.171875 214.902344 L 181.171875 228.808594 C 177.789062 229.863281 174.753906 231.734375 172.308594 234.183594 C 168.382812 238.113281 165.949219 243.542969 165.949219 249.535156 C 165.949219 255.527344 168.375 260.960938 172.308594 264.890625 C 176.234375 268.816406 181.660156 271.253906 187.648438 271.253906 C 193.636719 271.253906 199.0625 268.824219 202.988281 264.890625 C 206.914062 260.960938 209.347656 255.53125 209.347656 249.535156 C 209.347656 243.542969 206.914062 238.113281 202.988281 234.183594 C 200.542969 231.734375 197.507812 229.863281 194.121094 228.808594 L 194.121094 214.902344 L 223.636719 214.902344 C 228.988281 214.902344 234.21875 214.375 239.285156 213.367188 C 239.972656 218.078125 240.328125 222.644531 240.375 227.046875 C 240.527344 241.710938 237.226562 254.597656 230.703125 264.511719 Z M 187.648438 234.292969 C 191.855469 234.292969 195.664062 236 198.425781 238.765625 C 201.179688 241.527344 202.886719 245.339844 202.886719 249.550781 C 202.886719 253.761719 201.179688 257.574219 198.425781 260.335938 C 195.664062 263.097656 191.855469 264.808594 187.648438 264.808594 C 183.441406 264.808594 179.632812 263.097656 176.871094 260.335938 C 174.109375 257.578125 172.410156 253.761719 172.410156 249.550781 C 172.410156 245.339844 174.117188 241.527344 176.871094 238.765625 C 179.632812 236 183.441406 234.292969 187.648438 234.292969 Z M 288.214844 134.132812 C 288.214844 151.894531 280.945312 168.046875 269.242188 179.765625 C 257.53125 191.484375 241.398438 198.753906 223.644531 198.753906 L 151.007812 198.753906 C 115.496094 198.753906 86.4375 169.671875 86.4375 134.132812 L 86.4375 126.054688 C 86.4375 108.296875 93.707031 92.140625 105.410156 80.421875 C 117.121094 68.710938 133.261719 61.4375 151.007812 61.4375 L 223.644531 61.4375 C 259.15625 61.4375 288.214844 90.515625 288.214844 126.054688 Z M 261.074219 127.140625 L 261.074219 133.042969 C 261.074219 146.023438 255.765625 157.832031 247.207031 166.394531 C 238.648438 174.960938 226.851562 180.273438 213.882812 180.273438 L 160.785156 180.273438 C 134.824219 180.273438 113.582031 159.015625 113.582031 133.035156 L 113.582031 127.132812 C 113.582031 114.144531 118.894531 102.335938 127.453125 93.78125 C 136.007812 85.214844 147.808594 79.902344 160.785156 79.902344 L 213.882812 79.902344 C 239.835938 79.910156 261.074219 101.164062 261.074219 127.140625 Z M 261.074219 127.140625 " fill-opacity="1" fill-rule="evenodd"/></g><path fill="#11cde3" d="M 198.425781 238.757812 C 201.179688 241.519531 202.886719 245.332031 202.886719 249.542969 C 202.886719 253.753906 201.179688 257.566406 198.425781 260.328125 C 195.664062 263.09375 191.855469 264.800781 187.648438 264.800781 C 183.441406 264.800781 179.632812 263.09375 176.871094 260.328125 C 174.109375 257.574219 172.410156 253.753906 172.410156 249.542969 C 172.410156 245.332031 174.117188 241.519531 176.871094 238.757812 C 179.625 235.992188 183.441406 234.285156 187.648438 234.285156 C 191.863281 234.292969 195.671875 236 198.425781 238.757812 Z M 161.367188 116.667969 C 158.714844 115.316406 155.84375 114.707031 152.988281 114.769531 C 150.144531 114.832031 147.328125 115.566406 144.75 116.914062 C 138.976562 119.945312 134.398438 126.050781 133.636719 134.566406 C 133.5625 135.414062 133.824219 136.183594 134.40625 136.808594 C 134.988281 137.433594 135.734375 137.746094 136.589844 137.734375 L 137.222656 137.71875 C 138.707031 137.691406 139.921875 136.5625 140.058594 135.085938 C 140.632812 128.984375 143.769531 124.691406 147.722656 122.621094 C 149.421875 121.730469 151.265625 121.242188 153.109375 121.203125 C 154.933594 121.160156 156.769531 121.550781 158.46875 122.414062 C 162.605469 124.519531 165.976562 129.457031 166.710938 137.789062 C 166.839844 139.308594 168.121094 140.46875 169.648438 140.441406 L 170.265625 140.433594 C 171.101562 140.421875 171.8125 140.097656 172.375 139.476562 C 172.9375 138.851562 173.183594 138.109375 173.117188 137.273438 C 172.171875 126.378906 167.332031 119.699219 161.367188 116.667969 Z M 230.710938 116.921875 C 228.132812 115.570312 225.308594 114.839844 222.472656 114.777344 C 219.617188 114.714844 216.746094 115.324219 214.09375 116.675781 C 208.125 119.707031 203.289062 126.386719 202.34375 137.289062 C 202.269531 138.125 202.523438 138.863281 203.085938 139.488281 C 203.644531 140.113281 204.359375 140.433594 205.195312 140.449219 L 205.8125 140.457031 C 207.339844 140.484375 208.621094 139.324219 208.75 137.800781 C 209.484375 129.476562 212.855469 124.535156 216.992188 122.429688 C 218.691406 121.566406 220.527344 121.171875 222.351562 121.214844 C 224.195312 121.257812 226.035156 121.742188 227.734375 122.632812 C 231.6875 124.707031 234.832031 128.996094 235.402344 135.101562 C 235.539062 136.582031 236.753906 137.707031 238.238281 137.734375 L 238.867188 137.746094 C 239.726562 137.761719 240.464844 137.453125 241.046875 136.820312 C 241.628906 136.199219 241.898438 135.429688 241.816406 134.578125 C 241.0625 126.050781 236.484375 119.945312 230.710938 116.921875 Z M 230.710938 116.921875 " fill-opacity="1" fill-rule="nonzero"/><g fill="#11cde3" fill-opacity="0.9412"><g transform="translate(24.862057, 355.999729)"><g><path d="M 19.421875 -2.359375 C 19.398438 -2.179688 19.363281 -2.007812 19.3125 -1.84375 C 19.257812 -1.675781 19.128906 -1.546875 18.921875 -1.453125 C 18.835938 -1.410156 18.445312 -1.265625 17.75 -1.015625 C 17.050781 -0.773438 16.242188 -0.488281 15.328125 -0.15625 C 14.410156 0.164062 13.503906 0.488281 12.609375 0.8125 C 11.710938 1.132812 11.03125 1.382812 10.5625 1.5625 C 10.320312 1.664062 10.03125 1.769531 9.6875 1.875 C 9.34375 1.976562 9.003906 2.03125 8.671875 2.03125 C 8.398438 2.03125 8.160156 1.960938 7.953125 1.828125 C 7.742188 1.691406 7.640625 1.4375 7.640625 1.0625 C 7.640625 0.195312 7.664062 -0.59375 7.71875 -1.3125 C 7.769531 -2.03125 7.832031 -2.78125 7.90625 -3.5625 C 7.988281 -4.351562 8.070312 -5.222656 8.15625 -6.171875 C 8.25 -7.128906 8.332031 -8.269531 8.40625 -9.59375 C 8.507812 -11.320312 8.617188 -12.988281 8.734375 -14.59375 C 8.847656 -16.195312 8.96875 -17.863281 9.09375 -19.59375 L 9.5 -24.640625 C 9.5625 -25.460938 9.617188 -26.300781 9.671875 -27.15625 C 9.734375 -28.019531 9.796875 -28.90625 9.859375 -29.8125 L 10.1875 -33.40625 C 10.1875 -33.445312 10.125 -33.46875 10 -33.46875 C 9.84375 -33.46875 9.578125 -33.429688 9.203125 -33.359375 C 8.828125 -33.296875 8.382812 -33.210938 7.875 -33.109375 C 7.363281 -33.015625 6.796875 -32.910156 6.171875 -32.796875 C 5.554688 -32.691406 4.925781 -32.585938 4.28125 -32.484375 C 4.125 -32.484375 3.96875 -32.519531 3.8125 -32.59375 C 3.664062 -32.664062 3.59375 -32.75 3.59375 -32.84375 C 3.59375 -32.925781 3.613281 -32.984375 3.65625 -33.015625 L 8.4375 -41.375 C 9.519531 -41.613281 10.6875 -41.851562 11.9375 -42.09375 C 13.1875 -42.34375 14.53125 -42.566406 15.96875 -42.765625 C 17.40625 -42.960938 18.925781 -43.125 20.53125 -43.25 C 22.144531 -43.375 23.859375 -43.4375 25.671875 -43.4375 C 27.722656 -43.394531 29.71875 -43.191406 31.65625 -42.828125 C 33.59375 -42.460938 35.3125 -41.851562 36.8125 -41 C 38.320312 -40.144531 39.53125 -38.984375 40.4375 -37.515625 C 41.351562 -36.054688 41.8125 -34.203125 41.8125 -31.953125 C 41.8125 -30.710938 41.597656 -29.570312 41.171875 -28.53125 C 40.753906 -27.488281 40.210938 -26.550781 39.546875 -25.71875 C 38.890625 -24.882812 38.164062 -24.144531 37.375 -23.5 C 36.59375 -22.863281 35.84375 -22.316406 35.125 -21.859375 C 34.414062 -21.410156 33.785156 -21.050781 33.234375 -20.78125 C 32.679688 -20.519531 32.304688 -20.351562 32.109375 -20.28125 C 32.109375 -20.238281 32.125 -20.1875 32.15625 -20.125 C 32.1875 -20.0625 32.25 -19.945312 32.34375 -19.78125 C 32.4375 -19.613281 32.578125 -19.378906 32.765625 -19.078125 C 32.953125 -18.773438 33.195312 -18.359375 33.5 -17.828125 C 33.8125 -17.347656 34.179688 -16.710938 34.609375 -15.921875 C 35.046875 -15.140625 35.5625 -14.210938 36.15625 -13.140625 C 36.757812 -12.066406 37.453125 -10.867188 38.234375 -9.546875 C 39.023438 -8.234375 39.929688 -6.820312 40.953125 -5.3125 C 41.296875 -5.019531 41.679688 -4.835938 42.109375 -4.765625 C 42.546875 -4.691406 42.945312 -4.648438 43.3125 -4.640625 C 43.6875 -4.640625 44.003906 -4.625 44.265625 -4.59375 C 44.523438 -4.5625 44.65625 -4.4375 44.65625 -4.21875 C 44.65625 -4.0625 44.488281 -3.878906 44.15625 -3.671875 C 43.832031 -3.460938 43.453125 -3.25 43.015625 -3.03125 C 42.585938 -2.820312 42.148438 -2.617188 41.703125 -2.421875 C 41.265625 -2.222656 40.925781 -2.066406 40.6875 -1.953125 C 40.21875 -1.710938 39.726562 -1.484375 39.21875 -1.265625 C 38.707031 -1.046875 38.15625 -0.800781 37.5625 -0.53125 C 36.976562 -0.269531 36.328125 0.0351562 35.609375 0.390625 C 34.890625 0.742188 34.078125 1.164062 33.171875 1.65625 C 32.929688 1.789062 32.707031 1.878906 32.5 1.921875 C 32.300781 1.972656 32.113281 2 31.9375 2 C 31.582031 2 31.273438 1.914062 31.015625 1.75 C 30.753906 1.582031 30.535156 1.378906 30.359375 1.140625 C 30.179688 0.910156 30.039062 0.671875 29.9375 0.421875 C 29.832031 0.179688 29.738281 -0.015625 29.65625 -0.171875 L 20.859375 -18.703125 Z M 21.21875 -22.34375 C 22.21875 -22.34375 23.257812 -22.597656 24.34375 -23.109375 C 25.425781 -23.617188 26.410156 -24.273438 27.296875 -25.078125 C 28.179688 -25.890625 28.910156 -26.804688 29.484375 -27.828125 C 30.054688 -28.847656 30.34375 -29.878906 30.34375 -30.921875 C 30.34375 -33.773438 28.628906 -35.203125 25.203125 -35.203125 C 24.554688 -35.203125 24.015625 -35.15625 23.578125 -35.0625 C 23.140625 -34.976562 22.75 -34.914062 22.40625 -34.875 Z M 21.21875 -22.34375 "/></g></g></g><g fill="#11cde3" fill-opacity="0.9412"><g transform="translate(68.324762, 355.999729)"><g><path d="M 21.125 -32.9375 C 23 -32.9375 24.695312 -32.585938 26.21875 -31.890625 C 27.738281 -31.191406 29.046875 -30.285156 30.140625 -29.171875 C 31.234375 -28.054688 32.070312 -26.8125 32.65625 -25.4375 C 33.25 -24.0625 33.546875 -22.6875 33.546875 -21.3125 C 33.546875 -20.09375 33.171875 -18.863281 32.421875 -17.625 C 31.679688 -16.394531 30.632812 -15.289062 29.28125 -14.3125 C 27.9375 -13.332031 26.320312 -12.535156 24.4375 -11.921875 C 22.550781 -11.304688 20.472656 -11 18.203125 -11 C 17.023438 -11 15.785156 -11.117188 14.484375 -11.359375 C 14.566406 -10.515625 14.8125 -9.785156 15.21875 -9.171875 C 15.632812 -8.566406 16.15625 -8.066406 16.78125 -7.671875 C 17.414062 -7.273438 18.128906 -6.984375 18.921875 -6.796875 C 19.722656 -6.609375 20.546875 -6.515625 21.390625 -6.515625 C 22.335938 -6.515625 23.25 -6.597656 24.125 -6.765625 C 25 -6.941406 25.835938 -7.164062 26.640625 -7.4375 C 27.453125 -7.707031 28.226562 -8.007812 28.96875 -8.34375 C 29.71875 -8.6875 30.429688 -9.023438 31.109375 -9.359375 C 31.285156 -9.390625 31.4375 -9.421875 31.5625 -9.453125 C 31.6875 -9.484375 31.8125 -9.5 31.9375 -9.5 C 31.9375 -9.5 31.929688 -9.34375 31.921875 -9.03125 C 31.910156 -8.71875 31.90625 -8.273438 31.90625 -7.703125 C 31.90625 -7.128906 31.898438 -6.4375 31.890625 -5.625 C 31.878906 -4.820312 31.863281 -3.929688 31.84375 -2.953125 C 31.90625 -2.847656 31.941406 -2.75 31.953125 -2.65625 C 31.972656 -2.5625 31.984375 -2.484375 31.984375 -2.421875 C 31.984375 -2.179688 31.765625 -1.921875 31.328125 -1.640625 C 30.898438 -1.367188 30.335938 -1.085938 29.640625 -0.796875 C 28.941406 -0.503906 28.144531 -0.222656 27.25 0.046875 C 26.351562 0.328125 25.441406 0.582031 24.515625 0.8125 C 23.597656 1.039062 22.707031 1.21875 21.84375 1.34375 C 20.976562 1.46875 20.21875 1.53125 19.5625 1.53125 C 17.4375 1.53125 15.375 1.160156 13.375 0.421875 C 11.382812 -0.304688 9.613281 -1.359375 8.0625 -2.734375 C 6.519531 -4.117188 5.285156 -5.796875 4.359375 -7.765625 C 3.441406 -9.734375 2.984375 -11.945312 2.984375 -14.40625 C 2.984375 -16.976562 3.425781 -19.390625 4.3125 -21.640625 C 5.195312 -23.898438 6.441406 -25.863281 8.046875 -27.53125 C 9.648438 -29.207031 11.5625 -30.523438 13.78125 -31.484375 C 16 -32.453125 18.445312 -32.9375 21.125 -32.9375 Z M 20.78125 -25.078125 C 19.96875 -25.078125 19.222656 -24.90625 18.546875 -24.5625 C 17.867188 -24.21875 17.25 -23.726562 16.6875 -23.09375 C 16.125 -22.457031 15.632812 -21.691406 15.21875 -20.796875 C 14.8125 -19.898438 14.476562 -18.910156 14.21875 -17.828125 C 16.25 -18.179688 17.929688 -18.550781 19.265625 -18.9375 C 20.609375 -19.332031 21.679688 -19.734375 22.484375 -20.140625 C 23.296875 -20.546875 23.867188 -20.945312 24.203125 -21.34375 C 24.535156 -21.75 24.703125 -22.140625 24.703125 -22.515625 C 24.703125 -22.867188 24.566406 -23.203125 24.296875 -23.515625 C 24.035156 -23.828125 23.707031 -24.101562 23.3125 -24.34375 C 22.914062 -24.582031 22.488281 -24.765625 22.03125 -24.890625 C 21.570312 -25.015625 21.15625 -25.078125 20.78125 -25.078125 Z M 20.78125 -25.078125 "/></g></g></g><g fill="#11cde3" fill-opacity="0.9412"><g transform="translate(102.020899, 355.999729)"><g><path d="M 16.734375 -20.59375 C 16.617188 -18.707031 16.515625 -17.171875 16.421875 -15.984375 C 16.335938 -14.804688 16.265625 -13.847656 16.203125 -13.109375 C 16.140625 -12.378906 16.085938 -11.800781 16.046875 -11.375 C 16.015625 -10.945312 15.988281 -10.550781 15.96875 -10.1875 C 16.414062 -9 17.082031 -8.035156 17.96875 -7.296875 C 18.851562 -6.566406 19.914062 -6.203125 21.15625 -6.203125 C 22.238281 -6.203125 23.1875 -6.539062 24 -7.21875 C 24.820312 -7.894531 25.503906 -8.773438 26.046875 -9.859375 C 26.585938 -10.941406 26.992188 -12.148438 27.265625 -13.484375 C 27.546875 -14.828125 27.6875 -16.15625 27.6875 -17.46875 C 27.6875 -18.550781 27.59375 -19.554688 27.40625 -20.484375 C 27.21875 -21.410156 26.9375 -22.210938 26.5625 -22.890625 C 26.1875 -23.566406 25.71875 -24.09375 25.15625 -24.46875 C 24.59375 -24.851562 23.929688 -25.046875 23.171875 -25.046875 C 22.535156 -25.046875 21.90625 -24.921875 21.28125 -24.671875 C 20.664062 -24.429688 20.070312 -24.117188 19.5 -23.734375 C 18.9375 -23.359375 18.421875 -22.925781 17.953125 -22.4375 C 17.492188 -21.957031 17.117188 -21.492188 16.828125 -21.046875 Z M 17.328125 -29.25 C 18.972656 -30.363281 20.703125 -31.253906 22.515625 -31.921875 C 24.328125 -32.597656 26.21875 -32.9375 28.1875 -32.9375 C 30.03125 -32.9375 31.625 -32.554688 32.96875 -31.796875 C 34.320312 -31.035156 35.441406 -30.007812 36.328125 -28.71875 C 37.210938 -27.4375 37.863281 -25.957031 38.28125 -24.28125 C 38.707031 -22.613281 38.921875 -20.863281 38.921875 -19.03125 C 38.921875 -17.4375 38.765625 -15.820312 38.453125 -14.1875 C 38.140625 -12.5625 37.675781 -10.984375 37.0625 -9.453125 C 36.457031 -7.929688 35.703125 -6.5 34.796875 -5.15625 C 33.890625 -3.820312 32.847656 -2.65625 31.671875 -1.65625 C 30.503906 -0.664062 29.203125 0.109375 27.765625 0.671875 C 26.328125 1.242188 24.773438 1.53125 23.109375 1.53125 C 21.628906 1.53125 20.210938 1.234375 18.859375 0.640625 C 17.515625 0.0546875 16.253906 -0.707031 15.078125 -1.65625 C 15.078125 -1.550781 15.050781 -1.1875 15 -0.5625 C 14.957031 0.0507812 14.894531 0.800781 14.8125 1.6875 C 14.738281 2.570312 14.648438 3.519531 14.546875 4.53125 C 14.453125 5.539062 14.363281 6.488281 14.28125 7.375 C 14.207031 8.257812 14.144531 9.007812 14.09375 9.625 C 14.039062 10.25 14.015625 10.613281 14.015625 10.71875 C 14.015625 10.875 14.019531 11.003906 14.03125 11.109375 C 14.039062 11.210938 14.046875 11.316406 14.046875 11.421875 C 14.046875 11.578125 13.972656 11.707031 13.828125 11.8125 C 13.679688 11.925781 13.351562 12.050781 12.84375 12.1875 L 5.078125 14.171875 C 4.859375 14.222656 4.570312 14.3125 4.21875 14.4375 C 3.863281 14.570312 3.519531 14.640625 3.1875 14.640625 C 2.914062 14.640625 2.675781 14.566406 2.46875 14.421875 C 2.257812 14.285156 2.15625 14.03125 2.15625 13.65625 L 5.75 -29.546875 C 5.8125 -30.191406 5.882812 -30.632812 5.96875 -30.875 C 6.0625 -31.125 6.285156 -31.289062 6.640625 -31.375 C 8.429688 -31.726562 10.269531 -32.085938 12.15625 -32.453125 C 14.039062 -32.816406 15.878906 -33.28125 17.671875 -33.84375 C 17.828125 -33.84375 17.921875 -33.816406 17.953125 -33.765625 C 17.984375 -33.722656 18 -33.648438 18 -33.546875 C 18 -33.515625 17.992188 -33.457031 17.984375 -33.375 C 17.972656 -33.300781 17.941406 -33.125 17.890625 -32.84375 C 17.847656 -32.570312 17.78125 -32.15625 17.6875 -31.59375 C 17.601562 -31.03125 17.484375 -30.25 17.328125 -29.25 Z M 17.328125 -29.25 "/></g></g></g><g fill="#11cde3" fill-opacity="0.9412"><g transform="translate(141.11668, 355.999729)"><g><path d="M 19.765625 1.53125 C 16.992188 1.53125 14.5625 1.078125 12.46875 0.171875 C 10.375 -0.734375 8.617188 -1.9375 7.203125 -3.4375 C 5.785156 -4.945312 4.722656 -6.675781 4.015625 -8.625 C 3.304688 -10.582031 2.953125 -12.613281 2.953125 -14.71875 C 2.953125 -16.832031 3.296875 -18.835938 3.984375 -20.734375 C 4.671875 -22.628906 5.632812 -24.328125 6.875 -25.828125 C 8.113281 -27.335938 9.597656 -28.597656 11.328125 -29.609375 C 13.054688 -30.628906 14.96875 -31.316406 17.0625 -31.671875 C 17.375 -31.679688 17.53125 -31.75 17.53125 -31.875 C 17.53125 -32.09375 17.503906 -32.289062 17.453125 -32.46875 C 17.398438 -32.65625 17.375 -32.820312 17.375 -32.96875 C 17.375 -33.175781 17.414062 -33.320312 17.5 -33.40625 C 17.582031 -33.488281 17.671875 -33.53125 17.765625 -33.53125 C 21.523438 -33.53125 24.722656 -33.097656 27.359375 -32.234375 C 29.992188 -31.378906 32.132812 -30.210938 33.78125 -28.734375 C 35.4375 -27.265625 36.640625 -25.523438 37.390625 -23.515625 C 38.140625 -21.515625 38.515625 -19.363281 38.515625 -17.0625 C 38.515625 -14.125 38.019531 -11.503906 37.03125 -9.203125 C 36.050781 -6.898438 34.707031 -4.953125 33 -3.359375 C 31.300781 -1.765625 29.316406 -0.550781 27.046875 0.28125 C 24.773438 1.113281 22.347656 1.53125 19.765625 1.53125 Z M 14.3125 -15.046875 C 14.3125 -13.984375 14.421875 -12.929688 14.640625 -11.890625 C 14.867188 -10.847656 15.242188 -9.90625 15.765625 -9.0625 C 16.296875 -8.21875 16.984375 -7.535156 17.828125 -7.015625 C 18.671875 -6.492188 19.722656 -6.234375 20.984375 -6.234375 C 21.890625 -6.265625 22.679688 -6.460938 23.359375 -6.828125 C 24.035156 -7.191406 24.617188 -7.664062 25.109375 -8.25 C 25.597656 -8.832031 26.003906 -9.484375 26.328125 -10.203125 C 26.660156 -10.929688 26.921875 -11.6875 27.109375 -12.46875 C 27.296875 -13.25 27.425781 -14.007812 27.5 -14.75 C 27.582031 -15.5 27.625 -16.179688 27.625 -16.796875 C 27.625 -17.816406 27.46875 -18.816406 27.15625 -19.796875 C 26.851562 -20.785156 26.40625 -21.648438 25.8125 -22.390625 C 25.226562 -23.140625 24.5 -23.742188 23.625 -24.203125 C 22.75 -24.671875 21.738281 -24.90625 20.59375 -24.90625 C 19.414062 -24.90625 18.421875 -24.554688 17.609375 -23.859375 C 16.804688 -23.160156 16.164062 -22.300781 15.6875 -21.28125 C 15.207031 -20.257812 14.859375 -19.179688 14.640625 -18.046875 C 14.421875 -16.910156 14.3125 -15.910156 14.3125 -15.046875 Z M 14.3125 -15.046875 "/></g></g></g><g fill="#11cde3" fill-opacity="0.9412"><g transform="translate(179.858386, 355.999729)"><g><path d="M 19.421875 -2.359375 C 19.398438 -2.179688 19.363281 -2.007812 19.3125 -1.84375 C 19.257812 -1.675781 19.128906 -1.546875 18.921875 -1.453125 C 18.835938 -1.410156 18.445312 -1.265625 17.75 -1.015625 C 17.050781 -0.773438 16.242188 -0.488281 15.328125 -0.15625 C 14.410156 0.164062 13.503906 0.488281 12.609375 0.8125 C 11.710938 1.132812 11.03125 1.382812 10.5625 1.5625 C 10.320312 1.664062 10.03125 1.769531 9.6875 1.875 C 9.34375 1.976562 9.003906 2.03125 8.671875 2.03125 C 8.398438 2.03125 8.160156 1.960938 7.953125 1.828125 C 7.742188 1.691406 7.640625 1.4375 7.640625 1.0625 C 7.640625 0.195312 7.664062 -0.59375 7.71875 -1.3125 C 7.769531 -2.03125 7.832031 -2.78125 7.90625 -3.5625 C 7.988281 -4.351562 8.070312 -5.222656 8.15625 -6.171875 C 8.25 -7.128906 8.332031 -8.269531 8.40625 -9.59375 C 8.507812 -11.320312 8.617188 -12.988281 8.734375 -14.59375 C 8.847656 -16.195312 8.96875 -17.863281 9.09375 -19.59375 L 9.5 -24.640625 C 9.5625 -25.460938 9.617188 -26.300781 9.671875 -27.15625 C 9.734375 -28.019531 9.796875 -28.90625 9.859375 -29.8125 L 10.1875 -33.40625 C 10.1875 -33.445312 10.125 -33.46875 10 -33.46875 C 9.84375 -33.46875 9.578125 -33.429688 9.203125 -33.359375 C 8.828125 -33.296875 8.382812 -33.210938 7.875 -33.109375 C 7.363281 -33.015625 6.796875 -32.910156 6.171875 -32.796875 C 5.554688 -32.691406 4.925781 -32.585938 4.28125 -32.484375 C 4.125 -32.484375 3.96875 -32.519531 3.8125 -32.59375 C 3.664062 -32.664062 3.59375 -32.75 3.59375 -32.84375 C 3.59375 -32.925781 3.613281 -32.984375 3.65625 -33.015625 L 8.4375 -41.375 C 9.519531 -41.613281 10.6875 -41.851562 11.9375 -42.09375 C 13.1875 -42.34375 14.53125 -42.566406 15.96875 -42.765625 C 17.40625 -42.960938 18.925781 -43.125 20.53125 -43.25 C 22.144531 -43.375 23.859375 -43.4375 25.671875 -43.4375 C 27.722656 -43.394531 29.71875 -43.191406 31.65625 -42.828125 C 33.59375 -42.460938 35.3125 -41.851562 36.8125 -41 C 38.320312 -40.144531 39.53125 -38.984375 40.4375 -37.515625 C 41.351562 -36.054688 41.8125 -34.203125 41.8125 -31.953125 C 41.8125 -30.710938 41.597656 -29.570312 41.171875 -28.53125 C 40.753906 -27.488281 40.210938 -26.550781 39.546875 -25.71875 C 38.890625 -24.882812 38.164062 -24.144531 37.375 -23.5 C 36.59375 -22.863281 35.84375 -22.316406 35.125 -21.859375 C 34.414062 -21.410156 33.785156 -21.050781 33.234375 -20.78125 C 32.679688 -20.519531 32.304688 -20.351562 32.109375 -20.28125 C 32.109375 -20.238281 32.125 -20.1875 32.15625 -20.125 C 32.1875 -20.0625 32.25 -19.945312 32.34375 -19.78125 C 32.4375 -19.613281 32.578125 -19.378906 32.765625 -19.078125 C 32.953125 -18.773438 33.195312 -18.359375 33.5 -17.828125 C 33.8125 -17.347656 34.179688 -16.710938 34.609375 -15.921875 C 35.046875 -15.140625 35.5625 -14.210938 36.15625 -13.140625 C 36.757812 -12.066406 37.453125 -10.867188 38.234375 -9.546875 C 39.023438 -8.234375 39.929688 -6.820312 40.953125 -5.3125 C 41.296875 -5.019531 41.679688 -4.835938 42.109375 -4.765625 C 42.546875 -4.691406 42.945312 -4.648438 43.3125 -4.640625 C 43.6875 -4.640625 44.003906 -4.625 44.265625 -4.59375 C 44.523438 -4.5625 44.65625 -4.4375 44.65625 -4.21875 C 44.65625 -4.0625 44.488281 -3.878906 44.15625 -3.671875 C 43.832031 -3.460938 43.453125 -3.25 43.015625 -3.03125 C 42.585938 -2.820312 42.148438 -2.617188 41.703125 -2.421875 C 41.265625 -2.222656 40.925781 -2.066406 40.6875 -1.953125 C 40.21875 -1.710938 39.726562 -1.484375 39.21875 -1.265625 C 38.707031 -1.046875 38.15625 -0.800781 37.5625 -0.53125 C 36.976562 -0.269531 36.328125 0.0351562 35.609375 0.390625 C 34.890625 0.742188 34.078125 1.164062 33.171875 1.65625 C 32.929688 1.789062 32.707031 1.878906 32.5 1.921875 C 32.300781 1.972656 32.113281 2 31.9375 2 C 31.582031 2 31.273438 1.914062 31.015625 1.75 C 30.753906 1.582031 30.535156 1.378906 30.359375 1.140625 C 30.179688 0.910156 30.039062 0.671875 29.9375 0.421875 C 29.832031 0.179688 29.738281 -0.015625 29.65625 -0.171875 L 20.859375 -18.703125 Z M 21.21875 -22.34375 C 22.21875 -22.34375 23.257812 -22.597656 24.34375 -23.109375 C 25.425781 -23.617188 26.410156 -24.273438 27.296875 -25.078125 C 28.179688 -25.890625 28.910156 -26.804688 29.484375 -27.828125 C 30.054688 -28.847656 30.34375 -29.878906 30.34375 -30.921875 C 30.34375 -33.773438 28.628906 -35.203125 25.203125 -35.203125 C 24.554688 -35.203125 24.015625 -35.15625 23.578125 -35.0625 C 23.140625 -34.976562 22.75 -34.914062 22.40625 -34.875 Z M 21.21875 -22.34375 "/></g></g></g><g fill="#11cde3" fill-opacity="0.9412"><g transform="translate(223.321092, 355.999729)"><g><path d="M 19.765625 1.53125 C 16.992188 1.53125 14.5625 1.078125 12.46875 0.171875 C 10.375 -0.734375 8.617188 -1.9375 7.203125 -3.4375 C 5.785156 -4.945312 4.722656 -6.675781 4.015625 -8.625 C 3.304688 -10.582031 2.953125 -12.613281 2.953125 -14.71875 C 2.953125 -16.832031 3.296875 -18.835938 3.984375 -20.734375 C 4.671875 -22.628906 5.632812 -24.328125 6.875 -25.828125 C 8.113281 -27.335938 9.597656 -28.597656 11.328125 -29.609375 C 13.054688 -30.628906 14.96875 -31.316406 17.0625 -31.671875 C 17.375 -31.679688 17.53125 -31.75 17.53125 -31.875 C 17.53125 -32.09375 17.503906 -32.289062 17.453125 -32.46875 C 17.398438 -32.65625 17.375 -32.820312 17.375 -32.96875 C 17.375 -33.175781 17.414062 -33.320312 17.5 -33.40625 C 17.582031 -33.488281 17.671875 -33.53125 17.765625 -33.53125 C 21.523438 -33.53125 24.722656 -33.097656 27.359375 -32.234375 C 29.992188 -31.378906 32.132812 -30.210938 33.78125 -28.734375 C 35.4375 -27.265625 36.640625 -25.523438 37.390625 -23.515625 C 38.140625 -21.515625 38.515625 -19.363281 38.515625 -17.0625 C 38.515625 -14.125 38.019531 -11.503906 37.03125 -9.203125 C 36.050781 -6.898438 34.707031 -4.953125 33 -3.359375 C 31.300781 -1.765625 29.316406 -0.550781 27.046875 0.28125 C 24.773438 1.113281 22.347656 1.53125 19.765625 1.53125 Z M 14.3125 -15.046875 C 14.3125 -13.984375 14.421875 -12.929688 14.640625 -11.890625 C 14.867188 -10.847656 15.242188 -9.90625 15.765625 -9.0625 C 16.296875 -8.21875 16.984375 -7.535156 17.828125 -7.015625 C 18.671875 -6.492188 19.722656 -6.234375 20.984375 -6.234375 C 21.890625 -6.265625 22.679688 -6.460938 23.359375 -6.828125 C 24.035156 -7.191406 24.617188 -7.664062 25.109375 -8.25 C 25.597656 -8.832031 26.003906 -9.484375 26.328125 -10.203125 C 26.660156 -10.929688 26.921875 -11.6875 27.109375 -12.46875 C 27.296875 -13.25 27.425781 -14.007812 27.5 -14.75 C 27.582031 -15.5 27.625 -16.179688 27.625 -16.796875 C 27.625 -17.816406 27.46875 -18.816406 27.15625 -19.796875 C 26.851562 -20.785156 26.40625 -21.648438 25.8125 -22.390625 C 25.226562 -23.140625 24.5 -23.742188 23.625 -24.203125 C 22.75 -24.671875 21.738281 -24.90625 20.59375 -24.90625 C 19.414062 -24.90625 18.421875 -24.554688 17.609375 -23.859375 C 16.804688 -23.160156 16.164062 -22.300781 15.6875 -21.28125 C 15.207031 -20.257812 14.859375 -19.179688 14.640625 -18.046875 C 14.421875 -16.910156 14.3125 -15.910156 14.3125 -15.046875 Z M 14.3125 -15.046875 "/></g></g></g><g fill="#11cde3" fill-opacity="0.9412"><g transform="translate(262.062809, 355.999729)"><g><path d="M 25.234375 -32.640625 C 25.304688 -32.835938 25.453125 -32.9375 25.671875 -32.9375 C 25.710938 -32.9375 25.75 -32.929688 25.78125 -32.921875 C 25.820312 -32.910156 25.863281 -32.90625 25.90625 -32.90625 C 27.382812 -32.332031 28.898438 -31.863281 30.453125 -31.5 C 32.003906 -31.132812 33.550781 -30.785156 35.09375 -30.453125 C 35.46875 -30.378906 35.65625 -30.164062 35.65625 -29.8125 C 35.65625 -29.550781 35.535156 -29.15625 35.296875 -28.625 L 23.140625 -2.78125 C 22.984375 -2.425781 22.84375 -2.140625 22.71875 -1.921875 C 22.601562 -1.703125 22.484375 -1.523438 22.359375 -1.390625 C 22.242188 -1.253906 22.117188 -1.15625 21.984375 -1.09375 C 21.847656 -1.03125 21.679688 -0.976562 21.484375 -0.9375 C 19.984375 -0.644531 18.46875 -0.304688 16.9375 0.078125 C 15.40625 0.460938 13.8125 0.9375 12.15625 1.5 C 12.113281 1.5 12.082031 1.503906 12.0625 1.515625 C 12.050781 1.523438 12.035156 1.53125 12.015625 1.53125 L 11.796875 1.53125 C 11.703125 1.53125 11.625 1.492188 11.5625 1.421875 C 11.507812 1.359375 11.472656 1.296875 11.453125 1.234375 C 11.148438 0.390625 10.804688 -0.695312 10.421875 -2.03125 C 10.046875 -3.375 9.628906 -4.867188 9.171875 -6.515625 C 8.722656 -8.171875 8.253906 -9.929688 7.765625 -11.796875 C 7.273438 -13.671875 6.769531 -15.570312 6.25 -17.5 C 5.738281 -19.425781 5.234375 -21.335938 4.734375 -23.234375 C 4.234375 -25.140625 3.75 -26.9375 3.28125 -28.625 C 3.101562 -29.238281 3.015625 -29.671875 3.015625 -29.921875 C 3.015625 -30.203125 3.171875 -30.378906 3.484375 -30.453125 C 5.015625 -30.785156 6.601562 -31.132812 8.25 -31.5 C 9.90625 -31.863281 11.472656 -32.332031 12.953125 -32.90625 C 13.015625 -32.925781 13.101562 -32.9375 13.21875 -32.9375 C 13.476562 -32.9375 13.617188 -32.835938 13.640625 -32.640625 L 17.53125 -12.8125 C 17.625 -13.039062 17.789062 -13.460938 18.03125 -14.078125 C 18.269531 -14.703125 18.554688 -15.445312 18.890625 -16.3125 C 19.222656 -17.1875 19.585938 -18.144531 19.984375 -19.1875 C 20.390625 -20.226562 20.804688 -21.285156 21.234375 -22.359375 C 21.660156 -23.441406 22.078125 -24.519531 22.484375 -25.59375 C 22.898438 -26.664062 23.289062 -27.664062 23.65625 -28.59375 C 24.019531 -29.519531 24.335938 -30.335938 24.609375 -31.046875 C 24.890625 -31.753906 25.097656 -32.285156 25.234375 -32.640625 Z M 25.234375 -32.640625 "/></g></g></g><g fill="#11cde3" fill-opacity="0.9412"><g transform="translate(295.109809, 355.999729)"><g><path d="M 21.125 -32.9375 C 23 -32.9375 24.695312 -32.585938 26.21875 -31.890625 C 27.738281 -31.191406 29.046875 -30.285156 30.140625 -29.171875 C 31.234375 -28.054688 32.070312 -26.8125 32.65625 -25.4375 C 33.25 -24.0625 33.546875 -22.6875 33.546875 -21.3125 C 33.546875 -20.09375 33.171875 -18.863281 32.421875 -17.625 C 31.679688 -16.394531 30.632812 -15.289062 29.28125 -14.3125 C 27.9375 -13.332031 26.320312 -12.535156 24.4375 -11.921875 C 22.550781 -11.304688 20.472656 -11 18.203125 -11 C 17.023438 -11 15.785156 -11.117188 14.484375 -11.359375 C 14.566406 -10.515625 14.8125 -9.785156 15.21875 -9.171875 C 15.632812 -8.566406 16.15625 -8.066406 16.78125 -7.671875 C 17.414062 -7.273438 18.128906 -6.984375 18.921875 -6.796875 C 19.722656 -6.609375 20.546875 -6.515625 21.390625 -6.515625 C 22.335938 -6.515625 23.25 -6.597656 24.125 -6.765625 C 25 -6.941406 25.835938 -7.164062 26.640625 -7.4375 C 27.453125 -7.707031 28.226562 -8.007812 28.96875 -8.34375 C 29.71875 -8.6875 30.429688 -9.023438 31.109375 -9.359375 C 31.285156 -9.390625 31.4375 -9.421875 31.5625 -9.453125 C 31.6875 -9.484375 31.8125 -9.5 31.9375 -9.5 C 31.9375 -9.5 31.929688 -9.34375 31.921875 -9.03125 C 31.910156 -8.71875 31.90625 -8.273438 31.90625 -7.703125 C 31.90625 -7.128906 31.898438 -6.4375 31.890625 -5.625 C 31.878906 -4.820312 31.863281 -3.929688 31.84375 -2.953125 C 31.90625 -2.847656 31.941406 -2.75 31.953125 -2.65625 C 31.972656 -2.5625 31.984375 -2.484375 31.984375 -2.421875 C 31.984375 -2.179688 31.765625 -1.921875 31.328125 -1.640625 C 30.898438 -1.367188 30.335938 -1.085938 29.640625 -0.796875 C 28.941406 -0.503906 28.144531 -0.222656 27.25 0.046875 C 26.351562 0.328125 25.441406 0.582031 24.515625 0.8125 C 23.597656 1.039062 22.707031 1.21875 21.84375 1.34375 C 20.976562 1.46875 20.21875 1.53125 19.5625 1.53125 C 17.4375 1.53125 15.375 1.160156 13.375 0.421875 C 11.382812 -0.304688 9.613281 -1.359375 8.0625 -2.734375 C 6.519531 -4.117188 5.285156 -5.796875 4.359375 -7.765625 C 3.441406 -9.734375 2.984375 -11.945312 2.984375 -14.40625 C 2.984375 -16.976562 3.425781 -19.390625 4.3125 -21.640625 C 5.195312 -23.898438 6.441406 -25.863281 8.046875 -27.53125 C 9.648438 -29.207031 11.5625 -30.523438 13.78125 -31.484375 C 16 -32.453125 18.445312 -32.9375 21.125 -32.9375 Z M 20.78125 -25.078125 C 19.96875 -25.078125 19.222656 -24.90625 18.546875 -24.5625 C 17.867188 -24.21875 17.25 -23.726562 16.6875 -23.09375 C 16.125 -22.457031 15.632812 -21.691406 15.21875 -20.796875 C 14.8125 -19.898438 14.476562 -18.910156 14.21875 -17.828125 C 16.25 -18.179688 17.929688 -18.550781 19.265625 -18.9375 C 20.609375 -19.332031 21.679688 -19.734375 22.484375 -20.140625 C 23.296875 -20.546875 23.867188 -20.945312 24.203125 -21.34375 C 24.535156 -21.75 24.703125 -22.140625 24.703125 -22.515625 C 24.703125 -22.867188 24.566406 -23.203125 24.296875 -23.515625 C 24.035156 -23.828125 23.707031 -24.101562 23.3125 -24.34375 C 22.914062 -24.582031 22.488281 -24.765625 22.03125 -24.890625 C 21.570312 -25.015625 21.15625 -25.078125 20.78125 -25.078125 Z M 20.78125 -25.078125 "/></g></g></g><g fill="#11cde3" fill-opacity="0.9412"><g transform="translate(328.805946, 355.999729)"><g><path d="M 27.6875 -24.015625 C 27.269531 -24.054688 26.804688 -24.101562 26.296875 -24.15625 C 25.785156 -24.207031 25.242188 -24.234375 24.671875 -24.234375 C 23.804688 -24.234375 22.925781 -24.15625 22.03125 -24 C 21.132812 -23.851562 20.300781 -23.5625 19.53125 -23.125 C 18.769531 -22.695312 18.113281 -22.101562 17.5625 -21.34375 C 17.007812 -20.59375 16.65625 -19.617188 16.5 -18.421875 C 16.363281 -16.960938 16.25 -15.765625 16.15625 -14.828125 C 16.070312 -13.890625 16.007812 -13.117188 15.96875 -12.515625 C 15.925781 -11.921875 15.890625 -11.441406 15.859375 -11.078125 C 15.828125 -10.710938 15.800781 -10.375 15.78125 -10.0625 C 15.78125 -9.976562 15.765625 -9.757812 15.734375 -9.40625 C 15.710938 -9.050781 15.671875 -8.640625 15.609375 -8.171875 C 15.546875 -7.703125 15.488281 -7.191406 15.4375 -6.640625 C 15.394531 -6.085938 15.34375 -5.570312 15.28125 -5.09375 C 15.226562 -4.625 15.1875 -4.210938 15.15625 -3.859375 C 15.125 -3.503906 15.109375 -3.289062 15.109375 -3.21875 C 15.109375 -3.0625 15.113281 -2.925781 15.125 -2.8125 C 15.132812 -2.707031 15.140625 -2.609375 15.140625 -2.515625 C 15.140625 -2.347656 15.066406 -2.210938 14.921875 -2.109375 C 14.773438 -2.003906 14.441406 -1.878906 13.921875 -1.734375 L 6.109375 1.0625 C 5.890625 1.144531 5.601562 1.242188 5.25 1.359375 C 4.894531 1.472656 4.550781 1.53125 4.21875 1.53125 C 3.945312 1.53125 3.707031 1.460938 3.5 1.328125 C 3.289062 1.191406 3.1875 0.957031 3.1875 0.625 L 5.71875 -28.625 C 5.78125 -29.269531 5.851562 -29.71875 5.9375 -29.96875 C 6.03125 -30.21875 6.253906 -30.378906 6.609375 -30.453125 C 8.398438 -30.804688 10.25 -31.164062 12.15625 -31.53125 C 14.0625 -31.894531 15.910156 -32.363281 17.703125 -32.9375 C 17.859375 -32.9375 17.953125 -32.910156 17.984375 -32.859375 C 18.015625 -32.804688 18.03125 -32.734375 18.03125 -32.640625 C 18.03125 -32.597656 18.023438 -32.535156 18.015625 -32.453125 C 18.003906 -32.378906 17.972656 -32.203125 17.921875 -31.921875 C 17.878906 -31.648438 17.8125 -31.234375 17.71875 -30.671875 C 17.632812 -30.109375 17.515625 -29.328125 17.359375 -28.328125 C 18.253906 -29.035156 19.25 -29.679688 20.34375 -30.265625 C 21.4375 -30.859375 22.535156 -31.367188 23.640625 -31.796875 C 24.742188 -32.222656 25.804688 -32.554688 26.828125 -32.796875 C 27.847656 -33.046875 28.742188 -33.171875 29.515625 -33.171875 Z M 27.6875 -24.015625 "/></g></g></g><g fill="#344265" fill-opacity="1"><g transform="translate(22.191098, 353.328762)"><g><path d="M 19.421875 -2.359375 C 19.398438 -2.179688 19.363281 -2.007812 19.3125 -1.84375 C 19.257812 -1.675781 19.128906 -1.546875 18.921875 -1.453125 C 18.835938 -1.410156 18.445312 -1.265625 17.75 -1.015625 C 17.050781 -0.773438 16.242188 -0.488281 15.328125 -0.15625 C 14.410156 0.164062 13.503906 0.488281 12.609375 0.8125 C 11.710938 1.132812 11.03125 1.382812 10.5625 1.5625 C 10.320312 1.664062 10.03125 1.769531 9.6875 1.875 C 9.34375 1.976562 9.003906 2.03125 8.671875 2.03125 C 8.398438 2.03125 8.160156 1.960938 7.953125 1.828125 C 7.742188 1.691406 7.640625 1.4375 7.640625 1.0625 C 7.640625 0.195312 7.664062 -0.59375 7.71875 -1.3125 C 7.769531 -2.03125 7.832031 -2.78125 7.90625 -3.5625 C 7.988281 -4.351562 8.070312 -5.222656 8.15625 -6.171875 C 8.25 -7.128906 8.332031 -8.269531 8.40625 -9.59375 C 8.507812 -11.320312 8.617188 -12.988281 8.734375 -14.59375 C 8.847656 -16.195312 8.96875 -17.863281 9.09375 -19.59375 L 9.5 -24.640625 C 9.5625 -25.460938 9.617188 -26.300781 9.671875 -27.15625 C 9.734375 -28.019531 9.796875 -28.90625 9.859375 -29.8125 L 10.1875 -33.40625 C 10.1875 -33.445312 10.125 -33.46875 10 -33.46875 C 9.84375 -33.46875 9.578125 -33.429688 9.203125 -33.359375 C 8.828125 -33.296875 8.382812 -33.210938 7.875 -33.109375 C 7.363281 -33.015625 6.796875 -32.910156 6.171875 -32.796875 C 5.554688 -32.691406 4.925781 -32.585938 4.28125 -32.484375 C 4.125 -32.484375 3.96875 -32.519531 3.8125 -32.59375 C 3.664062 -32.664062 3.59375 -32.75 3.59375 -32.84375 C 3.59375 -32.925781 3.613281 -32.984375 3.65625 -33.015625 L 8.4375 -41.375 C 9.519531 -41.613281 10.6875 -41.851562 11.9375 -42.09375 C 13.1875 -42.34375 14.53125 -42.566406 15.96875 -42.765625 C 17.40625 -42.960938 18.925781 -43.125 20.53125 -43.25 C 22.144531 -43.375 23.859375 -43.4375 25.671875 -43.4375 C 27.722656 -43.394531 29.71875 -43.191406 31.65625 -42.828125 C 33.59375 -42.460938 35.3125 -41.851562 36.8125 -41 C 38.320312 -40.144531 39.53125 -38.984375 40.4375 -37.515625 C 41.351562 -36.054688 41.8125 -34.203125 41.8125 -31.953125 C 41.8125 -30.710938 41.597656 -29.570312 41.171875 -28.53125 C 40.753906 -27.488281 40.210938 -26.550781 39.546875 -25.71875 C 38.890625 -24.882812 38.164062 -24.144531 37.375 -23.5 C 36.59375 -22.863281 35.84375 -22.316406 35.125 -21.859375 C 34.414062 -21.410156 33.785156 -21.050781 33.234375 -20.78125 C 32.679688 -20.519531 32.304688 -20.351562 32.109375 -20.28125 C 32.109375 -20.238281 32.125 -20.1875 32.15625 -20.125 C 32.1875 -20.0625 32.25 -19.945312 32.34375 -19.78125 C 32.4375 -19.613281 32.578125 -19.378906 32.765625 -19.078125 C 32.953125 -18.773438 33.195312 -18.359375 33.5 -17.828125 C 33.8125 -17.347656 34.179688 -16.710938 34.609375 -15.921875 C 35.046875 -15.140625 35.5625 -14.210938 36.15625 -13.140625 C 36.757812 -12.066406 37.453125 -10.867188 38.234375 -9.546875 C 39.023438 -8.234375 39.929688 -6.820312 40.953125 -5.3125 C 41.296875 -5.019531 41.679688 -4.835938 42.109375 -4.765625 C 42.546875 -4.691406 42.945312 -4.648438 43.3125 -4.640625 C 43.6875 -4.640625 44.003906 -4.625 44.265625 -4.59375 C 44.523438 -4.5625 44.65625 -4.4375 44.65625 -4.21875 C 44.65625 -4.0625 44.488281 -3.878906 44.15625 -3.671875 C 43.832031 -3.460938 43.453125 -3.25 43.015625 -3.03125 C 42.585938 -2.820312 42.148438 -2.617188 41.703125 -2.421875 C 41.265625 -2.222656 40.925781 -2.066406 40.6875 -1.953125 C 40.21875 -1.710938 39.726562 -1.484375 39.21875 -1.265625 C 38.707031 -1.046875 38.15625 -0.800781 37.5625 -0.53125 C 36.976562 -0.269531 36.328125 0.0351562 35.609375 0.390625 C 34.890625 0.742188 34.078125 1.164062 33.171875 1.65625 C 32.929688 1.789062 32.707031 1.878906 32.5 1.921875 C 32.300781 1.972656 32.113281 2 31.9375 2 C 31.582031 2 31.273438 1.914062 31.015625 1.75 C 30.753906 1.582031 30.535156 1.378906 30.359375 1.140625 C 30.179688 0.910156 30.039062 0.671875 29.9375 0.421875 C 29.832031 0.179688 29.738281 -0.015625 29.65625 -0.171875 L 20.859375 -18.703125 Z M 21.21875 -22.34375 C 22.21875 -22.34375 23.257812 -22.597656 24.34375 -23.109375 C 25.425781 -23.617188 26.410156 -24.273438 27.296875 -25.078125 C 28.179688 -25.890625 28.910156 -26.804688 29.484375 -27.828125 C 30.054688 -28.847656 30.34375 -29.878906 30.34375 -30.921875 C 30.34375 -33.773438 28.628906 -35.203125 25.203125 -35.203125 C 24.554688 -35.203125 24.015625 -35.15625 23.578125 -35.0625 C 23.140625 -34.976562 22.75 -34.914062 22.40625 -34.875 Z M 21.21875 -22.34375 "/></g></g></g><g fill="#344265" fill-opacity="1"><g transform="translate(65.653803, 353.328762)"><g><path d="M 21.125 -32.9375 C 23 -32.9375 24.695312 -32.585938 26.21875 -31.890625 C 27.738281 -31.191406 29.046875 -30.285156 30.140625 -29.171875 C 31.234375 -28.054688 32.070312 -26.8125 32.65625 -25.4375 C 33.25 -24.0625 33.546875 -22.6875 33.546875 -21.3125 C 33.546875 -20.09375 33.171875 -18.863281 32.421875 -17.625 C 31.679688 -16.394531 30.632812 -15.289062 29.28125 -14.3125 C 27.9375 -13.332031 26.320312 -12.535156 24.4375 -11.921875 C 22.550781 -11.304688 20.472656 -11 18.203125 -11 C 17.023438 -11 15.785156 -11.117188 14.484375 -11.359375 C 14.566406 -10.515625 14.8125 -9.785156 15.21875 -9.171875 C 15.632812 -8.566406 16.15625 -8.066406 16.78125 -7.671875 C 17.414062 -7.273438 18.128906 -6.984375 18.921875 -6.796875 C 19.722656 -6.609375 20.546875 -6.515625 21.390625 -6.515625 C 22.335938 -6.515625 23.25 -6.597656 24.125 -6.765625 C 25 -6.941406 25.835938 -7.164062 26.640625 -7.4375 C 27.453125 -7.707031 28.226562 -8.007812 28.96875 -8.34375 C 29.71875 -8.6875 30.429688 -9.023438 31.109375 -9.359375 C 31.285156 -9.390625 31.4375 -9.421875 31.5625 -9.453125 C 31.6875 -9.484375 31.8125 -9.5 31.9375 -9.5 C 31.9375 -9.5 31.929688 -9.34375 31.921875 -9.03125 C 31.910156 -8.71875 31.90625 -8.273438 31.90625 -7.703125 C 31.90625 -7.128906 31.898438 -6.4375 31.890625 -5.625 C 31.878906 -4.820312 31.863281 -3.929688 31.84375 -2.953125 C 31.90625 -2.847656 31.941406 -2.75 31.953125 -2.65625 C 31.972656 -2.5625 31.984375 -2.484375 31.984375 -2.421875 C 31.984375 -2.179688 31.765625 -1.921875 31.328125 -1.640625 C 30.898438 -1.367188 30.335938 -1.085938 29.640625 -0.796875 C 28.941406 -0.503906 28.144531 -0.222656 27.25 0.046875 C 26.351562 0.328125 25.441406 0.582031 24.515625 0.8125 C 23.597656 1.039062 22.707031 1.21875 21.84375 1.34375 C 20.976562 1.46875 20.21875 1.53125 19.5625 1.53125 C 17.4375 1.53125 15.375 1.160156 13.375 0.421875 C 11.382812 -0.304688 9.613281 -1.359375 8.0625 -2.734375 C 6.519531 -4.117188 5.285156 -5.796875 4.359375 -7.765625 C 3.441406 -9.734375 2.984375 -11.945312 2.984375 -14.40625 C 2.984375 -16.976562 3.425781 -19.390625 4.3125 -21.640625 C 5.195312 -23.898438 6.441406 -25.863281 8.046875 -27.53125 C 9.648438 -29.207031 11.5625 -30.523438 13.78125 -31.484375 C 16 -32.453125 18.445312 -32.9375 21.125 -32.9375 Z M 20.78125 -25.078125 C 19.96875 -25.078125 19.222656 -24.90625 18.546875 -24.5625 C 17.867188 -24.21875 17.25 -23.726562 16.6875 -23.09375 C 16.125 -22.457031 15.632812 -21.691406 15.21875 -20.796875 C 14.8125 -19.898438 14.476562 -18.910156 14.21875 -17.828125 C 16.25 -18.179688 17.929688 -18.550781 19.265625 -18.9375 C 20.609375 -19.332031 21.679688 -19.734375 22.484375 -20.140625 C 23.296875 -20.546875 23.867188 -20.945312 24.203125 -21.34375 C 24.535156 -21.75 24.703125 -22.140625 24.703125 -22.515625 C 24.703125 -22.867188 24.566406 -23.203125 24.296875 -23.515625 C 24.035156 -23.828125 23.707031 -24.101562 23.3125 -24.34375 C 22.914062 -24.582031 22.488281 -24.765625 22.03125 -24.890625 C 21.570312 -25.015625 21.15625 -25.078125 20.78125 -25.078125 Z M 20.78125 -25.078125 "/></g></g></g><g fill="#344265" fill-opacity="1"><g transform="translate(99.34994, 353.328762)"><g><path d="M 16.734375 -20.59375 C 16.617188 -18.707031 16.515625 -17.171875 16.421875 -15.984375 C 16.335938 -14.804688 16.265625 -13.847656 16.203125 -13.109375 C 16.140625 -12.378906 16.085938 -11.800781 16.046875 -11.375 C 16.015625 -10.945312 15.988281 -10.550781 15.96875 -10.1875 C 16.414062 -9 17.082031 -8.035156 17.96875 -7.296875 C 18.851562 -6.566406 19.914062 -6.203125 21.15625 -6.203125 C 22.238281 -6.203125 23.1875 -6.539062 24 -7.21875 C 24.820312 -7.894531 25.503906 -8.773438 26.046875 -9.859375 C 26.585938 -10.941406 26.992188 -12.148438 27.265625 -13.484375 C 27.546875 -14.828125 27.6875 -16.15625 27.6875 -17.46875 C 27.6875 -18.550781 27.59375 -19.554688 27.40625 -20.484375 C 27.21875 -21.410156 26.9375 -22.210938 26.5625 -22.890625 C 26.1875 -23.566406 25.71875 -24.09375 25.15625 -24.46875 C 24.59375 -24.851562 23.929688 -25.046875 23.171875 -25.046875 C 22.535156 -25.046875 21.90625 -24.921875 21.28125 -24.671875 C 20.664062 -24.429688 20.070312 -24.117188 19.5 -23.734375 C 18.9375 -23.359375 18.421875 -22.925781 17.953125 -22.4375 C 17.492188 -21.957031 17.117188 -21.492188 16.828125 -21.046875 Z M 17.328125 -29.25 C 18.972656 -30.363281 20.703125 -31.253906 22.515625 -31.921875 C 24.328125 -32.597656 26.21875 -32.9375 28.1875 -32.9375 C 30.03125 -32.9375 31.625 -32.554688 32.96875 -31.796875 C 34.320312 -31.035156 35.441406 -30.007812 36.328125 -28.71875 C 37.210938 -27.4375 37.863281 -25.957031 38.28125 -24.28125 C 38.707031 -22.613281 38.921875 -20.863281 38.921875 -19.03125 C 38.921875 -17.4375 38.765625 -15.820312 38.453125 -14.1875 C 38.140625 -12.5625 37.675781 -10.984375 37.0625 -9.453125 C 36.457031 -7.929688 35.703125 -6.5 34.796875 -5.15625 C 33.890625 -3.820312 32.847656 -2.65625 31.671875 -1.65625 C 30.503906 -0.664062 29.203125 0.109375 27.765625 0.671875 C 26.328125 1.242188 24.773438 1.53125 23.109375 1.53125 C 21.628906 1.53125 20.210938 1.234375 18.859375 0.640625 C 17.515625 0.0546875 16.253906 -0.707031 15.078125 -1.65625 C 15.078125 -1.550781 15.050781 -1.1875 15 -0.5625 C 14.957031 0.0507812 14.894531 0.800781 14.8125 1.6875 C 14.738281 2.570312 14.648438 3.519531 14.546875 4.53125 C 14.453125 5.539062 14.363281 6.488281 14.28125 7.375 C 14.207031 8.257812 14.144531 9.007812 14.09375 9.625 C 14.039062 10.25 14.015625 10.613281 14.015625 10.71875 C 14.015625 10.875 14.019531 11.003906 14.03125 11.109375 C 14.039062 11.210938 14.046875 11.316406 14.046875 11.421875 C 14.046875 11.578125 13.972656 11.707031 13.828125 11.8125 C 13.679688 11.925781 13.351562 12.050781 12.84375 12.1875 L 5.078125 14.171875 C 4.859375 14.222656 4.570312 14.3125 4.21875 14.4375 C 3.863281 14.570312 3.519531 14.640625 3.1875 14.640625 C 2.914062 14.640625 2.675781 14.566406 2.46875 14.421875 C 2.257812 14.285156 2.15625 14.03125 2.15625 13.65625 L 5.75 -29.546875 C 5.8125 -30.191406 5.882812 -30.632812 5.96875 -30.875 C 6.0625 -31.125 6.285156 -31.289062 6.640625 -31.375 C 8.429688 -31.726562 10.269531 -32.085938 12.15625 -32.453125 C 14.039062 -32.816406 15.878906 -33.28125 17.671875 -33.84375 C 17.828125 -33.84375 17.921875 -33.816406 17.953125 -33.765625 C 17.984375 -33.722656 18 -33.648438 18 -33.546875 C 18 -33.515625 17.992188 -33.457031 17.984375 -33.375 C 17.972656 -33.300781 17.941406 -33.125 17.890625 -32.84375 C 17.847656 -32.570312 17.78125 -32.15625 17.6875 -31.59375 C 17.601562 -31.03125 17.484375 -30.25 17.328125 -29.25 Z M 17.328125 -29.25 "/></g></g></g><g fill="#344265" fill-opacity="1"><g transform="translate(138.445721, 353.328762)"><g><path d="M 19.765625 1.53125 C 16.992188 1.53125 14.5625 1.078125 12.46875 0.171875 C 10.375 -0.734375 8.617188 -1.9375 7.203125 -3.4375 C 5.785156 -4.945312 4.722656 -6.675781 4.015625 -8.625 C 3.304688 -10.582031 2.953125 -12.613281 2.953125 -14.71875 C 2.953125 -16.832031 3.296875 -18.835938 3.984375 -20.734375 C 4.671875 -22.628906 5.632812 -24.328125 6.875 -25.828125 C 8.113281 -27.335938 9.597656 -28.597656 11.328125 -29.609375 C 13.054688 -30.628906 14.96875 -31.316406 17.0625 -31.671875 C 17.375 -31.679688 17.53125 -31.75 17.53125 -31.875 C 17.53125 -32.09375 17.503906 -32.289062 17.453125 -32.46875 C 17.398438 -32.65625 17.375 -32.820312 17.375 -32.96875 C 17.375 -33.175781 17.414062 -33.320312 17.5 -33.40625 C 17.582031 -33.488281 17.671875 -33.53125 17.765625 -33.53125 C 21.523438 -33.53125 24.722656 -33.097656 27.359375 -32.234375 C 29.992188 -31.378906 32.132812 -30.210938 33.78125 -28.734375 C 35.4375 -27.265625 36.640625 -25.523438 37.390625 -23.515625 C 38.140625 -21.515625 38.515625 -19.363281 38.515625 -17.0625 C 38.515625 -14.125 38.019531 -11.503906 37.03125 -9.203125 C 36.050781 -6.898438 34.707031 -4.953125 33 -3.359375 C 31.300781 -1.765625 29.316406 -0.550781 27.046875 0.28125 C 24.773438 1.113281 22.347656 1.53125 19.765625 1.53125 Z M 14.3125 -15.046875 C 14.3125 -13.984375 14.421875 -12.929688 14.640625 -11.890625 C 14.867188 -10.847656 15.242188 -9.90625 15.765625 -9.0625 C 16.296875 -8.21875 16.984375 -7.535156 17.828125 -7.015625 C 18.671875 -6.492188 19.722656 -6.234375 20.984375 -6.234375 C 21.890625 -6.265625 22.679688 -6.460938 23.359375 -6.828125 C 24.035156 -7.191406 24.617188 -7.664062 25.109375 -8.25 C 25.597656 -8.832031 26.003906 -9.484375 26.328125 -10.203125 C 26.660156 -10.929688 26.921875 -11.6875 27.109375 -12.46875 C 27.296875 -13.25 27.425781 -14.007812 27.5 -14.75 C 27.582031 -15.5 27.625 -16.179688 27.625 -16.796875 C 27.625 -17.816406 27.46875 -18.816406 27.15625 -19.796875 C 26.851562 -20.785156 26.40625 -21.648438 25.8125 -22.390625 C 25.226562 -23.140625 24.5 -23.742188 23.625 -24.203125 C 22.75 -24.671875 21.738281 -24.90625 20.59375 -24.90625 C 19.414062 -24.90625 18.421875 -24.554688 17.609375 -23.859375 C 16.804688 -23.160156 16.164062 -22.300781 15.6875 -21.28125 C 15.207031 -20.257812 14.859375 -19.179688 14.640625 -18.046875 C 14.421875 -16.910156 14.3125 -15.910156 14.3125 -15.046875 Z M 14.3125 -15.046875 "/></g></g></g><g fill="#344265" fill-opacity="1"><g transform="translate(177.187427, 353.328762)"><g><path d="M 19.421875 -2.359375 C 19.398438 -2.179688 19.363281 -2.007812 19.3125 -1.84375 C 19.257812 -1.675781 19.128906 -1.546875 18.921875 -1.453125 C 18.835938 -1.410156 18.445312 -1.265625 17.75 -1.015625 C 17.050781 -0.773438 16.242188 -0.488281 15.328125 -0.15625 C 14.410156 0.164062 13.503906 0.488281 12.609375 0.8125 C 11.710938 1.132812 11.03125 1.382812 10.5625 1.5625 C 10.320312 1.664062 10.03125 1.769531 9.6875 1.875 C 9.34375 1.976562 9.003906 2.03125 8.671875 2.03125 C 8.398438 2.03125 8.160156 1.960938 7.953125 1.828125 C 7.742188 1.691406 7.640625 1.4375 7.640625 1.0625 C 7.640625 0.195312 7.664062 -0.59375 7.71875 -1.3125 C 7.769531 -2.03125 7.832031 -2.78125 7.90625 -3.5625 C 7.988281 -4.351562 8.070312 -5.222656 8.15625 -6.171875 C 8.25 -7.128906 8.332031 -8.269531 8.40625 -9.59375 C 8.507812 -11.320312 8.617188 -12.988281 8.734375 -14.59375 C 8.847656 -16.195312 8.96875 -17.863281 9.09375 -19.59375 L 9.5 -24.640625 C 9.5625 -25.460938 9.617188 -26.300781 9.671875 -27.15625 C 9.734375 -28.019531 9.796875 -28.90625 9.859375 -29.8125 L 10.1875 -33.40625 C 10.1875 -33.445312 10.125 -33.46875 10 -33.46875 C 9.84375 -33.46875 9.578125 -33.429688 9.203125 -33.359375 C 8.828125 -33.296875 8.382812 -33.210938 7.875 -33.109375 C 7.363281 -33.015625 6.796875 -32.910156 6.171875 -32.796875 C 5.554688 -32.691406 4.925781 -32.585938 4.28125 -32.484375 C 4.125 -32.484375 3.96875 -32.519531 3.8125 -32.59375 C 3.664062 -32.664062 3.59375 -32.75 3.59375 -32.84375 C 3.59375 -32.925781 3.613281 -32.984375 3.65625 -33.015625 L 8.4375 -41.375 C 9.519531 -41.613281 10.6875 -41.851562 11.9375 -42.09375 C 13.1875 -42.34375 14.53125 -42.566406 15.96875 -42.765625 C 17.40625 -42.960938 18.925781 -43.125 20.53125 -43.25 C 22.144531 -43.375 23.859375 -43.4375 25.671875 -43.4375 C 27.722656 -43.394531 29.71875 -43.191406 31.65625 -42.828125 C 33.59375 -42.460938 35.3125 -41.851562 36.8125 -41 C 38.320312 -40.144531 39.53125 -38.984375 40.4375 -37.515625 C 41.351562 -36.054688 41.8125 -34.203125 41.8125 -31.953125 C 41.8125 -30.710938 41.597656 -29.570312 41.171875 -28.53125 C 40.753906 -27.488281 40.210938 -26.550781 39.546875 -25.71875 C 38.890625 -24.882812 38.164062 -24.144531 37.375 -23.5 C 36.59375 -22.863281 35.84375 -22.316406 35.125 -21.859375 C 34.414062 -21.410156 33.785156 -21.050781 33.234375 -20.78125 C 32.679688 -20.519531 32.304688 -20.351562 32.109375 -20.28125 C 32.109375 -20.238281 32.125 -20.1875 32.15625 -20.125 C 32.1875 -20.0625 32.25 -19.945312 32.34375 -19.78125 C 32.4375 -19.613281 32.578125 -19.378906 32.765625 -19.078125 C 32.953125 -18.773438 33.195312 -18.359375 33.5 -17.828125 C 33.8125 -17.347656 34.179688 -16.710938 34.609375 -15.921875 C 35.046875 -15.140625 35.5625 -14.210938 36.15625 -13.140625 C 36.757812 -12.066406 37.453125 -10.867188 38.234375 -9.546875 C 39.023438 -8.234375 39.929688 -6.820312 40.953125 -5.3125 C 41.296875 -5.019531 41.679688 -4.835938 42.109375 -4.765625 C 42.546875 -4.691406 42.945312 -4.648438 43.3125 -4.640625 C 43.6875 -4.640625 44.003906 -4.625 44.265625 -4.59375 C 44.523438 -4.5625 44.65625 -4.4375 44.65625 -4.21875 C 44.65625 -4.0625 44.488281 -3.878906 44.15625 -3.671875 C 43.832031 -3.460938 43.453125 -3.25 43.015625 -3.03125 C 42.585938 -2.820312 42.148438 -2.617188 41.703125 -2.421875 C 41.265625 -2.222656 40.925781 -2.066406 40.6875 -1.953125 C 40.21875 -1.710938 39.726562 -1.484375 39.21875 -1.265625 C 38.707031 -1.046875 38.15625 -0.800781 37.5625 -0.53125 C 36.976562 -0.269531 36.328125 0.0351562 35.609375 0.390625 C 34.890625 0.742188 34.078125 1.164062 33.171875 1.65625 C 32.929688 1.789062 32.707031 1.878906 32.5 1.921875 C 32.300781 1.972656 32.113281 2 31.9375 2 C 31.582031 2 31.273438 1.914062 31.015625 1.75 C 30.753906 1.582031 30.535156 1.378906 30.359375 1.140625 C 30.179688 0.910156 30.039062 0.671875 29.9375 0.421875 C 29.832031 0.179688 29.738281 -0.015625 29.65625 -0.171875 L 20.859375 -18.703125 Z M 21.21875 -22.34375 C 22.21875 -22.34375 23.257812 -22.597656 24.34375 -23.109375 C 25.425781 -23.617188 26.410156 -24.273438 27.296875 -25.078125 C 28.179688 -25.890625 28.910156 -26.804688 29.484375 -27.828125 C 30.054688 -28.847656 30.34375 -29.878906 30.34375 -30.921875 C 30.34375 -33.773438 28.628906 -35.203125 25.203125 -35.203125 C 24.554688 -35.203125 24.015625 -35.15625 23.578125 -35.0625 C 23.140625 -34.976562 22.75 -34.914062 22.40625 -34.875 Z M 21.21875 -22.34375 "/></g></g></g><g fill="#344265" fill-opacity="1"><g transform="translate(220.650132, 353.328762)"><g><path d="M 19.765625 1.53125 C 16.992188 1.53125 14.5625 1.078125 12.46875 0.171875 C 10.375 -0.734375 8.617188 -1.9375 7.203125 -3.4375 C 5.785156 -4.945312 4.722656 -6.675781 4.015625 -8.625 C 3.304688 -10.582031 2.953125 -12.613281 2.953125 -14.71875 C 2.953125 -16.832031 3.296875 -18.835938 3.984375 -20.734375 C 4.671875 -22.628906 5.632812 -24.328125 6.875 -25.828125 C 8.113281 -27.335938 9.597656 -28.597656 11.328125 -29.609375 C 13.054688 -30.628906 14.96875 -31.316406 17.0625 -31.671875 C 17.375 -31.679688 17.53125 -31.75 17.53125 -31.875 C 17.53125 -32.09375 17.503906 -32.289062 17.453125 -32.46875 C 17.398438 -32.65625 17.375 -32.820312 17.375 -32.96875 C 17.375 -33.175781 17.414062 -33.320312 17.5 -33.40625 C 17.582031 -33.488281 17.671875 -33.53125 17.765625 -33.53125 C 21.523438 -33.53125 24.722656 -33.097656 27.359375 -32.234375 C 29.992188 -31.378906 32.132812 -30.210938 33.78125 -28.734375 C 35.4375 -27.265625 36.640625 -25.523438 37.390625 -23.515625 C 38.140625 -21.515625 38.515625 -19.363281 38.515625 -17.0625 C 38.515625 -14.125 38.019531 -11.503906 37.03125 -9.203125 C 36.050781 -6.898438 34.707031 -4.953125 33 -3.359375 C 31.300781 -1.765625 29.316406 -0.550781 27.046875 0.28125 C 24.773438 1.113281 22.347656 1.53125 19.765625 1.53125 Z M 14.3125 -15.046875 C 14.3125 -13.984375 14.421875 -12.929688 14.640625 -11.890625 C 14.867188 -10.847656 15.242188 -9.90625 15.765625 -9.0625 C 16.296875 -8.21875 16.984375 -7.535156 17.828125 -7.015625 C 18.671875 -6.492188 19.722656 -6.234375 20.984375 -6.234375 C 21.890625 -6.265625 22.679688 -6.460938 23.359375 -6.828125 C 24.035156 -7.191406 24.617188 -7.664062 25.109375 -8.25 C 25.597656 -8.832031 26.003906 -9.484375 26.328125 -10.203125 C 26.660156 -10.929688 26.921875 -11.6875 27.109375 -12.46875 C 27.296875 -13.25 27.425781 -14.007812 27.5 -14.75 C 27.582031 -15.5 27.625 -16.179688 27.625 -16.796875 C 27.625 -17.816406 27.46875 -18.816406 27.15625 -19.796875 C 26.851562 -20.785156 26.40625 -21.648438 25.8125 -22.390625 C 25.226562 -23.140625 24.5 -23.742188 23.625 -24.203125 C 22.75 -24.671875 21.738281 -24.90625 20.59375 -24.90625 C 19.414062 -24.90625 18.421875 -24.554688 17.609375 -23.859375 C 16.804688 -23.160156 16.164062 -22.300781 15.6875 -21.28125 C 15.207031 -20.257812 14.859375 -19.179688 14.640625 -18.046875 C 14.421875 -16.910156 14.3125 -15.910156 14.3125 -15.046875 Z M 14.3125 -15.046875 "/></g></g></g><g fill="#344265" fill-opacity="1"><g transform="translate(259.39185, 353.328762)"><g><path d="M 25.234375 -32.640625 C 25.304688 -32.835938 25.453125 -32.9375 25.671875 -32.9375 C 25.710938 -32.9375 25.75 -32.929688 25.78125 -32.921875 C 25.820312 -32.910156 25.863281 -32.90625 25.90625 -32.90625 C 27.382812 -32.332031 28.898438 -31.863281 30.453125 -31.5 C 32.003906 -31.132812 33.550781 -30.785156 35.09375 -30.453125 C 35.46875 -30.378906 35.65625 -30.164062 35.65625 -29.8125 C 35.65625 -29.550781 35.535156 -29.15625 35.296875 -28.625 L 23.140625 -2.78125 C 22.984375 -2.425781 22.84375 -2.140625 22.71875 -1.921875 C 22.601562 -1.703125 22.484375 -1.523438 22.359375 -1.390625 C 22.242188 -1.253906 22.117188 -1.15625 21.984375 -1.09375 C 21.847656 -1.03125 21.679688 -0.976562 21.484375 -0.9375 C 19.984375 -0.644531 18.46875 -0.304688 16.9375 0.078125 C 15.40625 0.460938 13.8125 0.9375 12.15625 1.5 C 12.113281 1.5 12.082031 1.503906 12.0625 1.515625 C 12.050781 1.523438 12.035156 1.53125 12.015625 1.53125 L 11.796875 1.53125 C 11.703125 1.53125 11.625 1.492188 11.5625 1.421875 C 11.507812 1.359375 11.472656 1.296875 11.453125 1.234375 C 11.148438 0.390625 10.804688 -0.695312 10.421875 -2.03125 C 10.046875 -3.375 9.628906 -4.867188 9.171875 -6.515625 C 8.722656 -8.171875 8.253906 -9.929688 7.765625 -11.796875 C 7.273438 -13.671875 6.769531 -15.570312 6.25 -17.5 C 5.738281 -19.425781 5.234375 -21.335938 4.734375 -23.234375 C 4.234375 -25.140625 3.75 -26.9375 3.28125 -28.625 C 3.101562 -29.238281 3.015625 -29.671875 3.015625 -29.921875 C 3.015625 -30.203125 3.171875 -30.378906 3.484375 -30.453125 C 5.015625 -30.785156 6.601562 -31.132812 8.25 -31.5 C 9.90625 -31.863281 11.472656 -32.332031 12.953125 -32.90625 C 13.015625 -32.925781 13.101562 -32.9375 13.21875 -32.9375 C 13.476562 -32.9375 13.617188 -32.835938 13.640625 -32.640625 L 17.53125 -12.8125 C 17.625 -13.039062 17.789062 -13.460938 18.03125 -14.078125 C 18.269531 -14.703125 18.554688 -15.445312 18.890625 -16.3125 C 19.222656 -17.1875 19.585938 -18.144531 19.984375 -19.1875 C 20.390625 -20.226562 20.804688 -21.285156 21.234375 -22.359375 C 21.660156 -23.441406 22.078125 -24.519531 22.484375 -25.59375 C 22.898438 -26.664062 23.289062 -27.664062 23.65625 -28.59375 C 24.019531 -29.519531 24.335938 -30.335938 24.609375 -31.046875 C 24.890625 -31.753906 25.097656 -32.285156 25.234375 -32.640625 Z M 25.234375 -32.640625 "/></g></g></g><g fill="#344265" fill-opacity="1"><g transform="translate(292.43885, 353.328762)"><g><path d="M 21.125 -32.9375 C 23 -32.9375 24.695312 -32.585938 26.21875 -31.890625 C 27.738281 -31.191406 29.046875 -30.285156 30.140625 -29.171875 C 31.234375 -28.054688 32.070312 -26.8125 32.65625 -25.4375 C 33.25 -24.0625 33.546875 -22.6875 33.546875 -21.3125 C 33.546875 -20.09375 33.171875 -18.863281 32.421875 -17.625 C 31.679688 -16.394531 30.632812 -15.289062 29.28125 -14.3125 C 27.9375 -13.332031 26.320312 -12.535156 24.4375 -11.921875 C 22.550781 -11.304688 20.472656 -11 18.203125 -11 C 17.023438 -11 15.785156 -11.117188 14.484375 -11.359375 C 14.566406 -10.515625 14.8125 -9.785156 15.21875 -9.171875 C 15.632812 -8.566406 16.15625 -8.066406 16.78125 -7.671875 C 17.414062 -7.273438 18.128906 -6.984375 18.921875 -6.796875 C 19.722656 -6.609375 20.546875 -6.515625 21.390625 -6.515625 C 22.335938 -6.515625 23.25 -6.597656 24.125 -6.765625 C 25 -6.941406 25.835938 -7.164062 26.640625 -7.4375 C 27.453125 -7.707031 28.226562 -8.007812 28.96875 -8.34375 C 29.71875 -8.6875 30.429688 -9.023438 31.109375 -9.359375 C 31.285156 -9.390625 31.4375 -9.421875 31.5625 -9.453125 C 31.6875 -9.484375 31.8125 -9.5 31.9375 -9.5 C 31.9375 -9.5 31.929688 -9.34375 31.921875 -9.03125 C 31.910156 -8.71875 31.90625 -8.273438 31.90625 -7.703125 C 31.90625 -7.128906 31.898438 -6.4375 31.890625 -5.625 C 31.878906 -4.820312 31.863281 -3.929688 31.84375 -2.953125 C 31.90625 -2.847656 31.941406 -2.75 31.953125 -2.65625 C 31.972656 -2.5625 31.984375 -2.484375 31.984375 -2.421875 C 31.984375 -2.179688 31.765625 -1.921875 31.328125 -1.640625 C 30.898438 -1.367188 30.335938 -1.085938 29.640625 -0.796875 C 28.941406 -0.503906 28.144531 -0.222656 27.25 0.046875 C 26.351562 0.328125 25.441406 0.582031 24.515625 0.8125 C 23.597656 1.039062 22.707031 1.21875 21.84375 1.34375 C 20.976562 1.46875 20.21875 1.53125 19.5625 1.53125 C 17.4375 1.53125 15.375 1.160156 13.375 0.421875 C 11.382812 -0.304688 9.613281 -1.359375 8.0625 -2.734375 C 6.519531 -4.117188 5.285156 -5.796875 4.359375 -7.765625 C 3.441406 -9.734375 2.984375 -11.945312 2.984375 -14.40625 C 2.984375 -16.976562 3.425781 -19.390625 4.3125 -21.640625 C 5.195312 -23.898438 6.441406 -25.863281 8.046875 -27.53125 C 9.648438 -29.207031 11.5625 -30.523438 13.78125 -31.484375 C 16 -32.453125 18.445312 -32.9375 21.125 -32.9375 Z M 20.78125 -25.078125 C 19.96875 -25.078125 19.222656 -24.90625 18.546875 -24.5625 C 17.867188 -24.21875 17.25 -23.726562 16.6875 -23.09375 C 16.125 -22.457031 15.632812 -21.691406 15.21875 -20.796875 C 14.8125 -19.898438 14.476562 -18.910156 14.21875 -17.828125 C 16.25 -18.179688 17.929688 -18.550781 19.265625 -18.9375 C 20.609375 -19.332031 21.679688 -19.734375 22.484375 -20.140625 C 23.296875 -20.546875 23.867188 -20.945312 24.203125 -21.34375 C 24.535156 -21.75 24.703125 -22.140625 24.703125 -22.515625 C 24.703125 -22.867188 24.566406 -23.203125 24.296875 -23.515625 C 24.035156 -23.828125 23.707031 -24.101562 23.3125 -24.34375 C 22.914062 -24.582031 22.488281 -24.765625 22.03125 -24.890625 C 21.570312 -25.015625 21.15625 -25.078125 20.78125 -25.078125 Z M 20.78125 -25.078125 "/></g></g></g><g fill="#344265" fill-opacity="1"><g transform="translate(326.134987, 353.328762)"><g><path d="M 27.6875 -24.015625 C 27.269531 -24.054688 26.804688 -24.101562 26.296875 -24.15625 C 25.785156 -24.207031 25.242188 -24.234375 24.671875 -24.234375 C 23.804688 -24.234375 22.925781 -24.15625 22.03125 -24 C 21.132812 -23.851562 20.300781 -23.5625 19.53125 -23.125 C 18.769531 -22.695312 18.113281 -22.101562 17.5625 -21.34375 C 17.007812 -20.59375 16.65625 -19.617188 16.5 -18.421875 C 16.363281 -16.960938 16.25 -15.765625 16.15625 -14.828125 C 16.070312 -13.890625 16.007812 -13.117188 15.96875 -12.515625 C 15.925781 -11.921875 15.890625 -11.441406 15.859375 -11.078125 C 15.828125 -10.710938 15.800781 -10.375 15.78125 -10.0625 C 15.78125 -9.976562 15.765625 -9.757812 15.734375 -9.40625 C 15.710938 -9.050781 15.671875 -8.640625 15.609375 -8.171875 C 15.546875 -7.703125 15.488281 -7.191406 15.4375 -6.640625 C 15.394531 -6.085938 15.34375 -5.570312 15.28125 -5.09375 C 15.226562 -4.625 15.1875 -4.210938 15.15625 -3.859375 C 15.125 -3.503906 15.109375 -3.289062 15.109375 -3.21875 C 15.109375 -3.0625 15.113281 -2.925781 15.125 -2.8125 C 15.132812 -2.707031 15.140625 -2.609375 15.140625 -2.515625 C 15.140625 -2.347656 15.066406 -2.210938 14.921875 -2.109375 C 14.773438 -2.003906 14.441406 -1.878906 13.921875 -1.734375 L 6.109375 1.0625 C 5.890625 1.144531 5.601562 1.242188 5.25 1.359375 C 4.894531 1.472656 4.550781 1.53125 4.21875 1.53125 C 3.945312 1.53125 3.707031 1.460938 3.5 1.328125 C 3.289062 1.191406 3.1875 0.957031 3.1875 0.625 L 5.71875 -28.625 C 5.78125 -29.269531 5.851562 -29.71875 5.9375 -29.96875 C 6.03125 -30.21875 6.253906 -30.378906 6.609375 -30.453125 C 8.398438 -30.804688 10.25 -31.164062 12.15625 -31.53125 C 14.0625 -31.894531 15.910156 -32.363281 17.703125 -32.9375 C 17.859375 -32.9375 17.953125 -32.910156 17.984375 -32.859375 C 18.015625 -32.804688 18.03125 -32.734375 18.03125 -32.640625 C 18.03125 -32.597656 18.023438 -32.535156 18.015625 -32.453125 C 18.003906 -32.378906 17.972656 -32.203125 17.921875 -31.921875 C 17.878906 -31.648438 17.8125 -31.234375 17.71875 -30.671875 C 17.632812 -30.109375 17.515625 -29.328125 17.359375 -28.328125 C 18.253906 -29.035156 19.25 -29.679688 20.34375 -30.265625 C 21.4375 -30.859375 22.535156 -31.367188 23.640625 -31.796875 C 24.742188 -32.222656 25.804688 -32.554688 26.828125 -32.796875 C 27.847656 -33.046875 28.742188 -33.171875 29.515625 -33.171875 Z M 27.6875 -24.015625 "/></g></g></g></svg>